<svg width="765" height="824" viewBox="0 0 765 824" fill="none" xmlns="http://www.w3.org/2000/svg">
<g filter="url(#filter0_f_1005_9221)">
<path d="M412.706 545.746C265.333 526.879 -22.1397 615.398 44.8816 662.441C111.903 709.484 263.549 789.952 367.378 789.952C471.206 789.952 612.033 712.251 668.067 662.441C724.101 612.63 518.25 559.258 412.706 545.746Z" fill="#3B4353" fill-opacity="0.05"/>
</g>
<g filter="url(#filter1_f_1005_9221)">
<path d="M409.862 574.336C289.467 562.097 54.6193 619.521 109.372 650.038C164.124 680.556 288.01 732.756 372.831 732.756C457.652 732.756 572.7 682.351 618.476 650.038C664.253 617.725 496.085 583.102 409.862 574.336Z" fill="#3B4353" fill-opacity="0.1"/>
</g>
<g filter="url(#filter2_f_1005_9221)">
<path d="M399.207 585.665L215.217 655.008C253.688 676.45 313.905 706.786 373.503 706.786C433.102 706.786 502.802 677.712 534.966 655.008L407.482 586.222C404.935 584.847 401.916 584.644 399.207 585.665Z" fill="url(#paint0_linear_1005_9221)" fill-opacity="0.5"/>
</g>
<path d="M509.092 30.8119L559.471 0.30957L551.917 59.6713L500.438 87.8161L509.092 30.8119Z" fill="#D3D2D0"/>
<path d="M609.647 37.7343L559.471 0.30957L551.917 59.6713L604.121 95.3969L609.647 37.7343Z" fill="#F5F1EF"/>
<path d="M551.838 59.6834L500.114 87.8751L549.801 121.258L604.337 95.5611L551.838 59.6834Z" fill="#D5D3D6"/>
<path d="M469.219 452.894L212.506 503.872L416.784 563.226L615.237 543.198L568.628 527.176L632.183 519.995L469.219 452.894Z" fill="url(#paint1_linear_1005_9221)"/>
<path d="M358.847 506.353L297.486 487.532L350.277 476.99L410.007 497.866L358.847 506.353Z" fill="#D0D0D0" stroke="#8E8A89" stroke-linejoin="round"/>
<path d="M358.847 505.98L297.486 487.158L350.277 476.617L410.007 497.493L358.847 505.98Z" fill="url(#paint2_linear_1005_9221)" stroke="#565654" stroke-linejoin="round"/>
<path d="M410.006 497.493L358.847 505.98V480.447L410.006 497.493Z" fill="url(#paint3_linear_1005_9221)" stroke="#565654" stroke-linejoin="round"/>
<path d="M359.105 479.388V506.352" stroke="#3E3E3E" stroke-width="3"/>
<path d="M269.927 520.716L528.921 478.103" stroke="#8E8A89" stroke-linejoin="round"/>
<path d="M323.904 536.34L583.994 500.323" stroke="#8E8A89" stroke-linejoin="round"/>
<path d="M375.06 550.752L569.627 527.038" stroke="#8E8A89" stroke-linejoin="round"/>
<path d="M405.382 465.684L568.917 527.038" stroke="#8E8A89" stroke-linejoin="round"/>
<path d="M410.297 497.785L551.105 550.143" stroke="#8E8A89" stroke-linejoin="round"/>
<path d="M597.921 150.787L548.822 172.402L548.465 177.53L595.493 210.951L597.921 150.787Z" fill="url(#paint4_linear_1005_9221)"/>
<path d="M358.686 505.903L501.945 554.449" stroke="#8E8A89" stroke-linejoin="round"/>
<path d="M253.435 496.045L458.526 558.755" stroke="#8E8A89" stroke-linejoin="round"/>
<path d="M431.021 172.728L195.41 288.156L181.744 349.931L247.153 367.995L483.758 285.482L489.715 210.68L431.021 172.728Z" fill="#CACAC8" stroke="#8E8A89"/>
<path d="M336.665 280.343L335.397 286.943L264.086 316.383L275.1 249.081L336.665 280.343Z" fill="#5C5C5A" stroke="#8E8A89"/>
<path d="M336.665 280.344L489.883 210.701L482.952 286.328L328.119 339.247L336.665 280.344Z" fill="url(#paint5_linear_1005_9221)" stroke="#8E8A89"/>
<path d="M336.665 280.343L489.883 210.701L431.399 172.802L275.233 249.139L336.665 280.343Z" fill="url(#paint6_linear_1005_9221)" stroke="#8E8A89"/>
<path d="M275.233 249.139L336.665 280.344L353.316 210.971L275.233 249.139Z" fill="url(#paint7_linear_1005_9221)" stroke="#8E8A89"/>
<path d="M217.103 485.044L212.925 504.034L252.759 495.878L217.103 485.044Z" fill="#949492" stroke="#8E8A89" stroke-linejoin="round"/>
<path d="M421.503 251.767L181.708 350.047L166.827 416.654L226.869 437.975L476.271 366.356L483.667 286.031L421.503 251.767Z" fill="url(#paint8_linear_1005_9221)" stroke="#8E8A89"/>
<path d="M421.503 251.767L181.708 350.047L166.939 415.98L412.593 334.168L476.27 366.356L483.439 286.104L421.503 251.767Z" fill="url(#paint9_linear_1005_9221)"/>
<path d="M483.439 286.104L421.503 251.767L412.593 334.168L476.27 366.356L483.439 286.104Z" stroke="#8E8A89"/>
<path d="M245.63 208.842L205.115 404.641" stroke="#8E8A89"/>
<path d="M286.725 184.981L252.485 388.245" stroke="#8E8A89"/>
<path d="M373.432 201.377L350.602 356.005" stroke="#8E8A89"/>
<path d="M307.791 297.292L296.172 373.326" stroke="#8E8A89"/>
<g filter="url(#filter3_f_1005_9221)">
<path d="M388.576 288.17L363.228 275.905L422.141 251.571L388.576 288.17Z" fill="#7A7A76" fill-opacity="0.2"/>
</g>
<path d="M174.491 414.66L138.278 426.617L122.562 493.237L182.691 510.66L220.271 502.461L231.886 433.792L174.491 414.66Z" fill="#D0CECF"/>
<path d="M174.491 414.66L138.278 426.617L122.562 493.237L158.434 485.037L220.271 502.461L231.886 433.792L174.491 414.66Z" fill="#BFBEBD"/>
<g filter="url(#filter4_f_1005_9221)">
<path d="M231.886 433.792L174.491 414.66L191.406 476.287L220.271 502.461L231.886 433.792Z" fill="url(#paint10_linear_1005_9221)" fill-opacity="0.2"/>
</g>
<path d="M174.491 414.66L138.278 426.617L122.562 493.237L158.434 485.037L174.491 414.66Z" fill="#DBDAD8"/>
<path d="M189.96 476.486L205.02 403.973L350.602 356.004L414.189 383.893L404.149 465.888L253.547 496.008L189.96 476.486Z" fill="#D9D9D9" stroke="#8E8A89"/>
<path d="M404.149 465.888L337.215 441.903L350.602 356.004L414.189 383.893L404.149 465.888Z" fill="url(#paint11_linear_1005_9221)" stroke="#8E8A89"/>
<path d="M404.149 465.888L468.784 453.238L476.763 366.695L414.189 383.894L404.149 465.888Z" fill="url(#paint12_linear_1005_9221)" stroke="#8E8A89"/>
<path d="M189.96 476.486L205.02 403.973L350.602 356.004L336.657 441.903L189.96 476.486Z" fill="#E0DFDE"/>
<path d="M349.271 476.658L282.683 454.328L295.558 373.858" stroke="#8E8A89" stroke-linejoin="round"/>
<path d="M298.24 487.311L233.665 466.141L247.431 389.528" stroke="#8E8A89" stroke-linejoin="round"/>
<path d="M552.094 113.379L502.262 76.3599L446.394 33.958L430.771 172.269L490.506 211.122L485.832 264.793L469.402 453.227L632.997 520.316L635.517 444.105L677.452 464.575V209.255L597.887 150.602L595.477 211.122L548.345 177.649L552.094 113.379Z" fill="url(#paint13_linear_1005_9221)"/>
<path d="M548.548 177.666L530.773 478.007" stroke="#8E8A89" stroke-linejoin="round"/>
<path d="M595.734 210.918L584.906 500.323" stroke="#8E8A89" stroke-linejoin="round"/>
<path d="M639.736 181.402L635.599 444.178" stroke="#8E8A89" stroke-linejoin="round"/>
<path d="M677.51 395.278L484.077 285.646" stroke="#8E8A89" stroke-linejoin="round"/>
<path d="M635.599 444.178L478.309 367.291" stroke="#8E8A89" stroke-linejoin="round"/>
<path d="M677.561 330.258L490.809 211.053" stroke="#8E8A89" stroke-linejoin="round"/>
<path d="M677.548 268.405L439.501 101.045" stroke="#8E8A89" stroke-linejoin="round"/>
<path d="M502.389 76.1855L490.405 211.003" stroke="#8E8A89" stroke-linejoin="round"/>
<path d="M245.581 209.112L208.331 229.68L195.25 288.335L431.444 172.498L446.533 34.291L260.392 151.422L245.581 209.112Z" fill="#D3D2D0"/>
<path d="M245.91 208.956L438.786 101.258" stroke="#8E8A89" stroke-linejoin="round"/>
<path d="M391.964 68.3155L373.253 201.713" stroke="#8E8A89" stroke-linejoin="round"/>
<path d="M341.193 99.3008L322.686 225.948" stroke="#8E8A89" stroke-linejoin="round"/>
<path d="M275.485 250.246L286.58 185.826" stroke="#8E8A89"/>
<path d="M233.344 269.509L245.595 208.913" stroke="#8E8A89"/>
<path d="M677.535 464.975L634.708 471.15L635.702 444.232L677.535 464.975Z" fill="url(#paint14_linear_1005_9221)" stroke="#8E8A89" stroke-linejoin="round"/>
<path d="M614.535 522.205V543.149L568.742 527.353L614.535 522.205Z" fill="#D9D7D8" stroke="#8E8A89" stroke-linejoin="round"/>
<path d="M593.33 276.569L544.607 245.479L540.43 318.1L590.391 346.082L593.33 276.569Z" fill="url(#paint15_linear_1005_9221)" stroke="#8E8A89"/>
<path d="M535.605 395.293L476.655 366.661L483.579 285.629L540.283 317.256L535.605 395.293Z" fill="url(#paint16_linear_1005_9221)" stroke="#8E8A89"/>
<path d="M373.572 200.853L322.071 226.142L307.489 298.317L362.497 275.613L373.572 200.853Z" fill="#D3D2D0" stroke="#8E8A89"/>
<path d="M288.033 63.5361L244.851 94.2986L230.693 154.419L275.57 127.265L288.033 63.5361Z" fill="#D4D3D1"/>
<path d="M341.192 97.5684L288.257 63.1465L275.374 127.214L230.529 154.886L288.257 184.725L331.782 160.021L341.192 97.5684Z" fill="#BBBAB8"/>
<path d="M341.193 97.5684L288.257 63.1465L275.374 127.214L331.782 160.021L341.193 97.5684Z" fill="url(#paint17_linear_1005_9221)"/>
<path d="M328.089 172.625L312.977 248.875L363.713 274.412L421.493 250.647L438.787 259.636L447.419 183.971L383.486 142.889L328.089 172.625Z" fill="#C1C0BE"/>
<path d="M328.089 172.625L312.977 248.875L372.769 223.122L438.787 259.636L447.419 183.971L383.486 142.889L328.089 172.625Z" fill="white"/>
<path d="M328.089 172.625L312.977 248.875L372.769 223.122L383.486 142.889L328.089 172.625Z" fill="#DEDDDB"/>
<path d="M209.275 293.941L190.069 386.368L272.508 417.245L334.59 399.97L348.686 306.627L267.694 266.9L209.275 293.941Z" fill="#D5D4D2"/>
<path d="M209.275 293.941L190.069 386.368L247.993 365.607L334.59 399.97L348.686 306.627L267.694 266.9L209.275 293.941Z" fill="white"/>
<path d="M209.275 293.941L190.069 386.368L247.993 365.607L267.694 266.9L209.275 293.941Z" fill="#DFDFDD"/>
<path d="M314.438 550.143L265.64 556.325L251.002 638.102L312.149 650.854H368.39L377.546 565.838L314.438 550.143Z" fill="url(#paint18_linear_1005_9221)"/>
<path d="M314.438 550.143L265.64 556.325L251.002 638.102H302.012L368.39 650.854L377.546 565.838L314.438 550.143Z" fill="#F5F5F5"/>
<path d="M314.438 550.143L265.64 556.325L251.002 638.102H302.012L314.438 550.143Z" fill="url(#paint19_linear_1005_9221)"/>
<path d="M605.07 222.436L602.185 297.423L651.189 327.665L723.75 308.178V232.564L677.035 196.494L605.07 222.436Z" fill="#D7D5D6"/>
<path d="M605.07 222.436L602.185 297.423L677.035 273.991L723.75 308.178V232.564L677.035 196.494L605.07 222.436Z" fill="#F6F2EF"/>
<path d="M605.07 222.436L602.185 297.423L677.035 273.991L677.035 196.494L605.07 222.436Z" fill="url(#paint20_linear_1005_9221)"/>
<path d="M501.512 279.229L495.309 359.546L551.792 388.604L623.947 371.299L626.232 289.676L570.728 255.068L501.512 279.229Z" fill="url(#paint21_linear_1005_9221)"/>
<path d="M501.512 279.229L495.309 359.546L566.484 339.956L623.947 371.299L626.232 289.676L570.728 255.068L501.512 279.229Z" fill="url(#paint22_linear_1005_9221)"/>
<path d="M501.512 279.229L495.309 359.546L566.484 339.956L570.728 255.068L501.512 279.229Z" fill="url(#paint23_linear_1005_9221)"/>
<path d="M651.854 441.468L650.736 517.906L695.371 535.755L764.71 529.082L762.037 451.885L720.668 429.516L651.854 441.468Z" fill="url(#paint24_linear_1005_9221)"/>
<path d="M651.854 441.468L650.736 517.906L720.668 508.287L764.71 529.082L762.037 451.885L720.668 429.516L651.854 441.468Z" fill="#FAF6F5"/>
<path d="M651.854 441.468L650.736 517.906L720.668 508.287L720.668 429.516L651.854 441.468Z" fill="#CCC8C7"/>
<path d="M521.012 510.06L464.242 517.689L459.735 572.652L509.084 587.686L567.152 583.562L568.667 527.382L521.012 510.06Z" fill="url(#paint25_linear_1005_9221)"/>
<path d="M520.754 509.694L464.242 517.688L459.735 572.651L516.973 568.21L567.152 583.562L568.607 527.322L520.754 509.694Z" fill="url(#paint26_linear_1005_9221)"/>
<path d="M520.843 509.597L464.486 517.351L459.735 572.651L516.973 568.211L520.843 509.597Z" fill="url(#paint27_linear_1005_9221)"/>
<g filter="url(#filter5_f_1005_9221)">
<path d="M520.768 509.504L464.241 517.688V519.651L520.768 511.352V509.504Z" fill="#828282" fill-opacity="0.4"/>
</g>
<g filter="url(#filter6_f_1005_9221)">
<path d="M520.807 509.584L568.726 527.429V529.392L520.807 511.432V509.584Z" fill="#828282" fill-opacity="0.4"/>
</g>
<defs>
<filter id="filter0_f_1005_9221" x="0.912598" y="509.148" width="710.648" height="314.803" filterUnits="userSpaceOnUse" color-interpolation-filters="sRGB">
<feFlood flood-opacity="0" result="BackgroundImageFix"/>
<feBlend mode="normal" in="SourceGraphic" in2="BackgroundImageFix" result="shape"/>
<feGaussianBlur stdDeviation="17" result="effect1_foregroundBlur_1005_9221"/>
</filter>
<filter id="filter1_f_1005_9221" x="67.2275" y="538.651" width="593.004" height="228.105" filterUnits="userSpaceOnUse" color-interpolation-filters="sRGB">
<feFlood flood-opacity="0" result="BackgroundImageFix"/>
<feBlend mode="normal" in="SourceGraphic" in2="BackgroundImageFix" result="shape"/>
<feGaussianBlur stdDeviation="17" result="effect1_foregroundBlur_1005_9221"/>
</filter>
<filter id="filter2_f_1005_9221" x="181.217" y="551.022" width="387.749" height="189.763" filterUnits="userSpaceOnUse" color-interpolation-filters="sRGB">
<feFlood flood-opacity="0" result="BackgroundImageFix"/>
<feBlend mode="normal" in="SourceGraphic" in2="BackgroundImageFix" result="shape"/>
<feGaussianBlur stdDeviation="17" result="effect1_foregroundBlur_1005_9221"/>
</filter>
<filter id="filter3_f_1005_9221" x="353.228" y="241.571" width="78.9131" height="56.5986" filterUnits="userSpaceOnUse" color-interpolation-filters="sRGB">
<feFlood flood-opacity="0" result="BackgroundImageFix"/>
<feBlend mode="normal" in="SourceGraphic" in2="BackgroundImageFix" result="shape"/>
<feGaussianBlur stdDeviation="5" result="effect1_foregroundBlur_1005_9221"/>
</filter>
<filter id="filter4_f_1005_9221" x="170.491" y="410.66" width="65.395" height="95.8008" filterUnits="userSpaceOnUse" color-interpolation-filters="sRGB">
<feFlood flood-opacity="0" result="BackgroundImageFix"/>
<feBlend mode="normal" in="SourceGraphic" in2="BackgroundImageFix" result="shape"/>
<feGaussianBlur stdDeviation="2" result="effect1_foregroundBlur_1005_9221"/>
</filter>
<filter id="filter5_f_1005_9221" x="463.241" y="508.504" width="58.5261" height="12.1475" filterUnits="userSpaceOnUse" color-interpolation-filters="sRGB">
<feFlood flood-opacity="0" result="BackgroundImageFix"/>
<feBlend mode="normal" in="SourceGraphic" in2="BackgroundImageFix" result="shape"/>
<feGaussianBlur stdDeviation="0.5" result="effect1_foregroundBlur_1005_9221"/>
</filter>
<filter id="filter6_f_1005_9221" x="519.807" y="508.584" width="49.9185" height="21.8086" filterUnits="userSpaceOnUse" color-interpolation-filters="sRGB">
<feFlood flood-opacity="0" result="BackgroundImageFix"/>
<feBlend mode="normal" in="SourceGraphic" in2="BackgroundImageFix" result="shape"/>
<feGaussianBlur stdDeviation="0.5" result="effect1_foregroundBlur_1005_9221"/>
</filter>
<linearGradient id="paint0_linear_1005_9221" x1="375.092" y1="584.058" x2="375.092" y2="706.786" gradientUnits="userSpaceOnUse">
<stop stop-color="#3B4353"/>
<stop offset="1" stop-color="#3B4353" stop-opacity="0"/>
</linearGradient>
<linearGradient id="paint1_linear_1005_9221" x1="438.648" y1="579.744" x2="438.648" y2="466.529" gradientUnits="userSpaceOnUse">
<stop stop-color="#A3A1A4"/>
<stop offset="1" stop-color="#DADADA"/>
</linearGradient>
<linearGradient id="paint2_linear_1005_9221" x1="337.715" y1="476.617" x2="320.498" y2="495.674" gradientUnits="userSpaceOnUse">
<stop stop-color="#626262"/>
<stop offset="1" stop-color="#9A9A9A"/>
</linearGradient>
<linearGradient id="paint3_linear_1005_9221" x1="366.161" y1="483.709" x2="365.271" y2="505.98" gradientUnits="userSpaceOnUse">
<stop stop-color="#626262"/>
<stop offset="1" stop-color="#9A9A9A"/>
</linearGradient>
<linearGradient id="paint4_linear_1005_9221" x1="579.407" y1="150.787" x2="567.263" y2="189.24" gradientUnits="userSpaceOnUse">
<stop stop-color="#E7E7E7"/>
<stop offset="1" stop-color="#BEBDBB"/>
</linearGradient>
<linearGradient id="paint5_linear_1005_9221" x1="489.883" y1="303.38" x2="440.553" y2="291.055" gradientUnits="userSpaceOnUse">
<stop stop-color="#7F7E7B"/>
<stop offset="1" stop-color="#373735"/>
</linearGradient>
<linearGradient id="paint6_linear_1005_9221" x1="489.883" y1="250.338" x2="429.778" y2="226.519" gradientUnits="userSpaceOnUse">
<stop stop-color="#7F7E7B"/>
<stop offset="1" stop-color="#373735"/>
</linearGradient>
<linearGradient id="paint7_linear_1005_9221" x1="305.964" y1="229.707" x2="312.819" y2="281.884" gradientUnits="userSpaceOnUse">
<stop stop-color="#8A8987"/>
<stop offset="1" stop-color="#5E5F5A"/>
</linearGradient>
<linearGradient id="paint8_linear_1005_9221" x1="413.499" y1="328.5" x2="403.333" y2="452.52" gradientUnits="userSpaceOnUse">
<stop stop-color="#C6C5C3"/>
<stop offset="1" stop-color="#8D8C8A"/>
</linearGradient>
<linearGradient id="paint9_linear_1005_9221" x1="269.54" y1="291.388" x2="273.37" y2="385.221" gradientUnits="userSpaceOnUse">
<stop stop-color="#D2D2D0"/>
<stop offset="1" stop-color="#E9E9E9"/>
</linearGradient>
<linearGradient id="paint10_linear_1005_9221" x1="203.189" y1="422.569" x2="194.933" y2="467.468" gradientUnits="userSpaceOnUse">
<stop stop-color="#6F6E6C"/>
<stop offset="1" stop-color="#6F6E6C" stop-opacity="0"/>
</linearGradient>
<linearGradient id="paint11_linear_1005_9221" x1="439.129" y1="339.777" x2="347.761" y2="431.145" gradientUnits="userSpaceOnUse">
<stop stop-color="#979694"/>
<stop offset="1" stop-color="#E1DEDB"/>
</linearGradient>
<linearGradient id="paint12_linear_1005_9221" x1="404.149" y1="375.71" x2="440.456" y2="456.4" gradientUnits="userSpaceOnUse">
<stop stop-color="#979694"/>
<stop offset="1" stop-color="#E1DEDB"/>
</linearGradient>
<linearGradient id="paint13_linear_1005_9221" x1="610.875" y1="509.043" x2="455.489" y2="96.4672" gradientUnits="userSpaceOnUse">
<stop stop-color="#DDDCDA"/>
<stop offset="1" stop-color="white"/>
</linearGradient>
<linearGradient id="paint14_linear_1005_9221" x1="650.274" y1="450.799" x2="650.274" y2="471.15" gradientUnits="userSpaceOnUse">
<stop stop-color="#BCB7BB"/>
<stop offset="1" stop-color="#E4E4E4"/>
</linearGradient>
<linearGradient id="paint15_linear_1005_9221" x1="576.094" y1="245.479" x2="593.609" y2="313.871" gradientUnits="userSpaceOnUse">
<stop stop-color="#7F7E7B"/>
<stop offset="1" stop-color="#373735"/>
</linearGradient>
<linearGradient id="paint16_linear_1005_9221" x1="519.551" y1="285.629" x2="537.047" y2="361.011" gradientUnits="userSpaceOnUse">
<stop stop-color="#7F7E7B"/>
<stop offset="1" stop-color="#373735"/>
</linearGradient>
<linearGradient id="paint17_linear_1005_9221" x1="285.099" y1="76.1396" x2="329.822" y2="143.631" gradientUnits="userSpaceOnUse">
<stop stop-color="#FEFDFB"/>
<stop offset="1" stop-color="#D2CECD"/>
</linearGradient>
<linearGradient id="paint18_linear_1005_9221" x1="308.512" y1="637.11" x2="310.582" y2="650.854" gradientUnits="userSpaceOnUse">
<stop stop-color="#C4C4C4"/>
<stop offset="1" stop-color="#BBBAB8"/>
</linearGradient>
<linearGradient id="paint19_linear_1005_9221" x1="269.169" y1="561.876" x2="282.72" y2="627.447" gradientUnits="userSpaceOnUse">
<stop stop-color="#DDDCDA"/>
<stop offset="1" stop-color="#FFFFFE"/>
</linearGradient>
<linearGradient id="paint20_linear_1005_9221" x1="614.479" y1="228.396" x2="673.788" y2="274.433" gradientUnits="userSpaceOnUse">
<stop offset="0.0315334" stop-color="#D5D4D2"/>
<stop offset="1" stop-color="#F2F1EE"/>
</linearGradient>
<linearGradient id="paint21_linear_1005_9221" x1="568.116" y1="340.245" x2="560.77" y2="388.604" gradientUnits="userSpaceOnUse">
<stop stop-color="#D4D3D1"/>
<stop offset="1" stop-color="#CBCAC8"/>
</linearGradient>
<linearGradient id="paint22_linear_1005_9221" x1="622.314" y1="303.958" x2="560.77" y2="285.348" gradientUnits="userSpaceOnUse">
<stop stop-color="#E1DDDC"/>
<stop offset="1" stop-color="#FAF6F3"/>
</linearGradient>
<linearGradient id="paint23_linear_1005_9221" x1="507.715" y1="277.512" x2="566.157" y2="281.43" gradientUnits="userSpaceOnUse">
<stop stop-color="#BFBEBA"/>
<stop offset="1" stop-color="#E6E4E1"/>
</linearGradient>
<linearGradient id="paint24_linear_1005_9221" x1="711.049" y1="508.808" x2="700.627" y2="535.755" gradientUnits="userSpaceOnUse">
<stop stop-color="#D6D6D6"/>
<stop offset="1" stop-color="#E3DFE0"/>
</linearGradient>
<linearGradient id="paint25_linear_1005_9221" x1="500.206" y1="561.613" x2="503.311" y2="593.906" gradientUnits="userSpaceOnUse">
<stop stop-color="#CECECE"/>
<stop offset="1" stop-color="#C1C1C1"/>
</linearGradient>
<linearGradient id="paint26_linear_1005_9221" x1="554.856" y1="572.79" x2="529.774" y2="519.193" gradientUnits="userSpaceOnUse">
<stop stop-color="#F0EFEE"/>
<stop offset="1" stop-color="#BEBCBD"/>
</linearGradient>
<linearGradient id="paint27_linear_1005_9221" x1="480.333" y1="510.059" x2="490.373" y2="572.651" gradientUnits="userSpaceOnUse">
<stop stop-color="#A6A4A5"/>
<stop offset="1" stop-color="#C1C0BF"/>
</linearGradient>
</defs>
</svg>
