<svg width="87" height="58" viewBox="0 0 87 58" fill="none" xmlns="http://www.w3.org/2000/svg">
<path d="M58.8015 42.0949C63.5777 46.2166 58.3612 51.8587 53.838 47.9545" stroke="black" stroke-width="2" stroke-linecap="round" stroke-linejoin="round"/>
<path d="M30.0113 11.5001C28.5227 11.0001 24.6119 9.04556 23 7L11.5 29.5C11.844 29.844 13.5625 32.3259 16 34.5C24.0807 41.7077 40 53.5 40 53.5C43.7602 56.6557 47.8271 54.874 46.6898 51.4148C51.0613 54.9807 55.1924 51.5375 53.7689 47.9629C57.7959 51.3425 62.1962 47.4496 60.1706 43.7396C64.6758 47.5161 69.7504 41.5992 65.0002 37.4999L38 12.0001C38 12.0001 31.5 12.0001 30.0113 11.5001Z" fill="white"/>
<path d="M23 7L23.7854 6.38107L22.8197 5.1555L22.1096 6.54489L23 7ZM38 12.0001L38.6866 11.2731C38.501 11.0978 38.2553 11.0001 38 11.0001L38 12.0001ZM65.0002 37.4999L64.3135 38.2269L64.3298 38.2423L64.3468 38.257L65.0002 37.4999ZM41.9791 45.2091C41.5532 44.8574 40.9229 44.9176 40.5712 45.3434C40.2196 45.7692 40.2797 46.3995 40.7055 46.7512L41.9791 45.2091ZM44.9982 48.9993L45.6491 48.2401C45.6444 48.2361 45.6397 48.2321 45.6349 48.2282L44.9982 48.9993ZM46.7744 40.3342C46.3388 39.9947 45.7104 40.0728 45.371 40.5084C45.0316 40.9441 45.1096 41.5724 45.5452 41.9119L46.7744 40.3342ZM52.1628 45.8L52.8137 45.0409C52.8019 45.0307 52.7898 45.0208 52.7774 45.0112L52.1628 45.8ZM51.1099 35.1769C50.6657 34.8487 50.0395 34.9427 49.7113 35.3869C49.3831 35.8311 49.4772 36.4572 49.9214 36.7854L51.1099 35.1769ZM58.8175 42.1151L59.4684 41.356C59.4501 41.3402 59.4312 41.3252 59.4118 41.3108L58.8175 42.1151ZM11.5 29.5L10.6096 29.0449L10.2785 29.6927L10.7929 30.2071L11.5 29.5ZM40 53.5L40.6428 52.734L40.6196 52.7145L40.5952 52.6964L40 53.5ZM16 34.5L16.6656 33.7537L16.6656 33.7537L16 34.5ZM22.2146 7.61893C23.1383 8.79124 24.6503 9.86742 26.0431 10.6906C27.4507 11.5224 28.8651 12.1701 29.6929 12.4481L30.3297 10.5522C29.6689 10.3302 28.3836 9.75057 27.0607 8.96876C25.723 8.17822 24.4736 7.25433 23.7854 6.38107L22.2146 7.61893ZM29.6929 12.4481C30.1954 12.6169 30.9974 12.7164 31.802 12.7855C32.6451 12.8579 33.6163 12.9055 34.5294 12.937C35.4446 12.9686 36.3114 12.9844 36.9488 12.9922C37.2677 12.9962 37.5297 12.9981 37.7124 12.9991C37.8037 12.9996 37.8752 12.9999 37.9241 13C37.9485 13.0001 37.9673 13.0001 37.9801 13.0001C37.9865 13.0001 37.9913 13.0001 37.9947 13.0001C37.9963 13.0001 37.9976 13.0001 37.9985 13.0001C37.999 13.0001 37.9993 13.0001 37.9996 13.0001C37.9997 13.0001 37.9998 13.0001 37.9998 13.0001C37.9999 13.0001 38 13.0001 38 12.0001C38 11.0001 38 11.0001 38 11.0001C38 11.0001 37.9999 11.0001 37.9998 11.0001C37.9997 11.0001 37.9995 11.0001 37.9991 11.0001C37.9984 11.0001 37.9973 11.0001 37.9959 11.0001C37.993 11.0001 37.9885 11.0001 37.9825 11.0001C37.9706 11.0001 37.9527 11.0001 37.9292 11C37.8821 10.9999 37.8125 10.9996 37.7232 10.9992C37.5445 10.9982 37.2872 10.9963 36.9735 10.9924C36.3456 10.9846 35.4943 10.9691 34.5984 10.9382C33.7005 10.9072 32.7675 10.8611 31.9732 10.7929C31.1403 10.7213 30.5715 10.6334 30.3297 10.5522L29.6929 12.4481ZM64.3468 38.257C65.3728 39.1424 65.8 40.0613 65.8895 40.8483C65.9798 41.6429 65.7364 42.3825 65.2809 42.9416C64.8244 43.5018 64.1607 43.8742 63.4094 43.9379C62.6694 44.0006 61.7628 43.7694 60.813 42.9732L59.5282 44.5059C60.831 45.598 62.2482 46.0434 63.5782 45.9308C64.897 45.819 66.0499 45.1641 66.8314 44.2048C67.6139 43.2443 68.0301 41.9721 67.8767 40.6224C67.7224 39.265 67.0026 37.9071 65.6535 36.7429L64.3468 38.257ZM40.7055 46.7512L44.3614 49.7703L45.6349 48.2282L41.9791 45.2091L40.7055 46.7512ZM45.5452 41.9119L51.5483 46.5889L52.7774 45.0112L46.7744 40.3342L45.5452 41.9119ZM49.9214 36.7854L58.2232 42.9194L59.4118 41.3108L51.1099 35.1769L49.9214 36.7854ZM58.1666 42.8743C58.6916 43.3244 59.0544 43.7819 59.2929 44.2188L61.0483 43.2604C60.6814 42.5883 60.1567 41.9461 59.4684 41.356L58.1666 42.8743ZM59.2929 44.2188C60.0582 45.6204 59.6081 46.982 58.6388 47.7104C57.6982 48.4171 56.1065 48.6192 54.4117 47.1969L53.126 48.7289C55.4583 50.6862 58.0803 50.6317 59.8402 49.3093C61.5713 48.0086 62.3086 45.5688 61.0483 43.2604L59.2929 44.2188ZM12.3904 29.9551L23.8904 7.45511L22.1096 6.54489L10.6096 29.0449L12.3904 29.9551ZM37.3134 12.7271L64.3135 38.2269L65.6868 36.7729L38.6866 11.2731L37.3134 12.7271ZM44.3473 49.7584C45.0951 50.3996 45.5384 51.1146 45.7398 51.7272L47.6397 51.1025C47.3156 50.1168 46.6524 49.1003 45.6491 48.2401L44.3473 49.7584ZM45.7398 51.7272C45.96 52.3968 45.9006 52.8893 45.7458 53.2231C45.5912 53.5568 45.2944 53.8347 44.8432 53.9969C43.926 54.3266 42.3352 54.1542 40.6428 52.734L39.3572 54.266C41.4251 56.0014 43.7477 56.516 45.5198 55.879C46.4131 55.5579 47.1548 54.939 47.5603 54.0643C47.9657 53.1899 47.9882 52.1624 47.6397 51.1025L45.7398 51.7272ZM51.512 46.5592C52.1852 47.1365 52.6167 47.7726 52.8398 48.3329L54.6979 47.5929C54.3449 46.7065 53.711 45.8102 52.8137 45.0409L51.512 46.5592ZM52.8398 48.3329C53.3716 49.6683 52.8661 50.9074 51.8786 51.5148C50.9175 52.1059 49.2547 52.2166 47.3218 50.6399L46.0577 52.1897C48.4963 54.1789 51.0848 54.351 52.9264 53.2183C54.7414 52.102 55.5896 49.8321 54.6979 47.5929L52.8398 48.3329ZM10.7929 30.2071C10.7923 30.2065 10.8246 30.2417 10.9136 30.3521C10.9934 30.451 11.0935 30.5785 11.2192 30.7386C11.4675 31.0545 11.7979 31.474 12.1959 31.9529C12.9905 32.909 14.0648 34.1139 15.3344 35.2463L16.6656 33.7537C15.4977 32.712 14.494 31.5889 13.734 30.6745C13.3547 30.2181 13.0386 29.8169 12.7917 29.5027C12.574 29.2257 12.3482 28.934 12.2071 28.7929L10.7929 30.2071ZM15.3344 35.2463C19.4038 38.8761 25.4288 43.6451 30.4195 47.4947C32.9183 49.4222 35.164 51.124 36.7851 52.3439C37.5956 52.9539 38.2501 53.4435 38.7022 53.7807C38.9283 53.9494 39.1037 54.0799 39.2227 54.1684C39.2822 54.2126 39.3276 54.2463 39.3582 54.269C39.3735 54.2804 39.3851 54.289 39.3929 54.2947C39.3968 54.2976 39.3997 54.2998 39.4017 54.3013C39.4027 54.302 39.4034 54.3026 39.404 54.303C39.4042 54.3031 39.4044 54.3033 39.4045 54.3034C39.4047 54.3035 39.4048 54.3036 40 53.5C40.5952 52.6964 40.5952 52.6964 40.5951 52.6963C40.595 52.6963 40.5948 52.6961 40.5946 52.696C40.5941 52.6956 40.5934 52.6951 40.5925 52.6944C40.5906 52.693 40.5878 52.6909 40.584 52.6881C40.5764 52.6825 40.565 52.6741 40.55 52.6629C40.5198 52.6405 40.4748 52.6071 40.4158 52.5632C40.2977 52.4754 40.1232 52.3456 39.8982 52.1777C39.4481 51.8419 38.7958 51.354 37.9877 50.7458C36.3713 49.5294 34.1321 47.8326 31.641 45.9111C26.6519 42.0627 20.6769 37.3317 16.6656 33.7537L15.3344 35.2463Z" fill="black"/>
<rect x="23.0585" y="32.4138" width="4.71057" height="8.17068" rx="2.35528" transform="rotate(43.6975 23.0585 32.4138)" fill="white" stroke="black" stroke-width="2"/>
<rect x="37.0444" y="46.1773" width="4.71057" height="6.70286" rx="2.35528" transform="rotate(43.6975 37.0444 46.1773)" fill="white" stroke="black" stroke-width="2"/>
<rect x="29.5258" y="35.1773" width="4.71057" height="11.7422" rx="2.35528" transform="rotate(43.6975 29.5258 35.1773)" fill="white" stroke="black" stroke-width="2"/>
<rect x="33.2275" y="40.4896" width="4.71057" height="10.3491" rx="2.35528" transform="rotate(43.6975 33.2275 40.4896)" fill="white" stroke="black" stroke-width="2"/>
<path d="M42.0454 8.41312L32.1546 17.4048C31.7377 17.7839 31.5 18.3212 31.5 18.8847V29.4845C31.5 30.3807 32.1067 31.2311 32.9997 31.1551C35.4409 30.9475 37.5008 28.3893 39.4406 23.6463C39.4799 23.55 39.5269 23.4552 39.5804 23.3661L41.2907 20.5157C41.9247 19.4589 43.3544 19.2215 44.296 20.0166L64.1837 36.4147C64.942 37.0399 66.0423 37.0215 66.7793 36.3712L74 30L68.4209 10.9382C68.1714 10.0858 67.3897 9.5 66.5015 9.5L54.8222 9.49996C54.6087 9.49996 54.3948 9.46499 54.1919 9.39867C49.4206 7.83929 46.8206 7.45941 43.1097 7.91851C42.7125 7.96765 42.3416 8.14387 42.0454 8.41312Z" fill="white" stroke="black" stroke-width="2"/>
<rect x="65.9705" y="5.35266" width="11.1758" height="29.1868" rx="1" transform="rotate(-17.8285 65.9705 5.35266)" fill="white" stroke="black" stroke-width="2"/>
<rect x="-1.34906" y="0.424315" width="11.1758" height="29.1868" rx="1" transform="matrix(-0.886686 -0.462371 -0.462371 0.886686 23.7535 5.51642)" fill="white" stroke="black" stroke-width="2"/>
</svg>
