<svg width="53" height="52" viewBox="0 0 53 52" fill="none" xmlns="http://www.w3.org/2000/svg">
<path d="M11.9525 34.9352L15.8765 39.0973C13.328 48.0996 8.74625 49.0695 1.00007 49.5851C1.5588 40.3409 4.35335 36.8903 11.9525 34.9352Z" stroke="black" stroke-width="2" stroke-linejoin="round"/>
<path d="M9.6868 14.861L16.7181 17.5567L12.1835 26.6671L1.33883 20.6593L9.6868 14.861Z" stroke="black" stroke-width="2" stroke-linejoin="round"/>
<path d="M35.2045 42.6327L32.9006 35.4634L23.554 39.4888L28.9547 50.6482L35.2045 42.6327Z" stroke="black" stroke-width="2" stroke-linejoin="round"/>
<path d="M10.471 29.781C16.8276 8.06972 25.9784 1.26293 50.997 1.16717C50.467 24.5601 44.1786 34.5941 20.827 40.9246L10.471 29.781Z" fill="white" stroke="black" stroke-width="2"/>
<ellipse cx="32.4589" cy="19.5797" rx="7.81836" ry="7.81836" transform="rotate(1.68615 32.4589 19.5797)" stroke="black" stroke-width="2"/>
<path d="M14.29 20.7373L30.4622 37.2312" stroke="black" stroke-width="2"/>
</svg>
