<svg width="87" height="58" viewBox="0 0 87 58" fill="none" xmlns="http://www.w3.org/2000/svg">
<rect x="65.9705" y="5.35266" width="11.1758" height="29.1868" rx="1" transform="rotate(-17.8285 65.9705 5.35266)" stroke="black" stroke-width="2"/>
<rect x="-1.34906" y="0.424315" width="11.1758" height="29.1868" rx="1" transform="matrix(-0.886686 -0.462371 -0.462371 0.886686 23.7535 5.51642)" stroke="black" stroke-width="2"/>
<rect x="23.0585" y="32.4138" width="4.71057" height="8.17068" rx="2.35528" transform="rotate(43.6975 23.0585 32.4138)" fill="white" stroke="black" stroke-width="2"/>
<rect x="37.0444" y="46.1773" width="4.71057" height="6.70286" rx="2.35528" transform="rotate(43.6975 37.0444 46.1773)" fill="white" stroke="black" stroke-width="2"/>
<rect x="29.5258" y="35.1773" width="4.71057" height="11.7422" rx="2.35528" transform="rotate(43.6975 29.5258 35.1773)" fill="white" stroke="black" stroke-width="2"/>
<rect x="33.2275" y="40.4896" width="4.71057" height="10.3491" rx="2.35528" transform="rotate(43.6975 33.2275 40.4896)" fill="white" stroke="black" stroke-width="2"/>
<path d="M12.4548 30.6005C13.9548 32.1005 19.3541 35.6466 19.3541 35.6466" stroke="black" stroke-width="2"/>
<path d="M24.0708 7.51381C25.6827 9.55937 28.5227 11.0002 30.0114 11.5002C31.5001 12.0002 38.0001 12.0001 38.0001 12.0001" stroke="black" stroke-width="2"/>
<path d="M65.0002 37.4999C69.7764 41.6216 64.62 47.5809 60.0968 43.6767" stroke="black" stroke-width="2"/>
<path d="M58.8015 42.0949C63.5777 46.2166 58.3612 51.8587 53.838 47.9545" stroke="black" stroke-width="2" stroke-linecap="round" stroke-linejoin="round"/>
<path d="M41.3424 45.9802L44.9983 48.9993C49.664 52.9997 44.6923 58.7568 40.0635 54.8721L37.9978 52.9996" stroke="black" stroke-width="2" stroke-linecap="round" stroke-linejoin="round"/>
<path d="M46.1599 41.123L52.1629 45.8001C56.8287 49.8004 51.9838 55.7157 46.7276 51.4281" stroke="black" stroke-width="2" stroke-linecap="round" stroke-linejoin="round"/>
<path d="M50.5157 35.9812L58.8176 42.1151C63.4834 46.1155 58.5117 51.8726 53.8828 47.988" stroke="black" stroke-width="2" stroke-linecap="round" stroke-linejoin="round"/>
<path fill-rule="evenodd" clip-rule="evenodd" d="M42.7181 9.15307C42.8685 9.01629 43.0495 8.93358 43.2325 8.91095C46.7497 8.47582 49.195 8.81761 53.8813 10.3492C54.1818 10.4474 54.5004 10.5 54.8222 10.5L66.9999 10.5V8.49996L54.8222 8.49997C54.717 8.49997 54.6079 8.48258 54.5026 8.44816C49.6463 6.86099 46.8916 6.44302 42.9869 6.92608C42.3754 7.00174 41.8146 7.27147 41.3727 7.67319L31.482 16.6649C30.8566 17.2335 30.5 18.0395 30.5 18.8847V29.4845C30.5 30.1457 30.7209 30.8149 31.1476 31.3255C31.588 31.8527 32.2663 32.2211 33.0845 32.1515C34.6578 32.0177 36.0063 31.1274 37.1722 29.7466C38.332 28.3732 39.379 26.4385 40.3661 24.0248C40.3873 23.9731 40.4119 23.924 40.4379 23.8806L42.1482 21.0302C42.4652 20.5018 43.18 20.3831 43.6508 20.7807L64.3548 38.264L65 37.5L65.6616 38.2498L74.1616 30.7498L72.8383 29.2502L64.9856 36.179L44.9412 19.2526C43.5288 18.0599 41.3843 18.416 40.4332 20.0012L38.7229 22.8516C38.642 22.9865 38.5725 23.127 38.515 23.2677C37.5623 25.5971 36.6095 27.313 35.6441 28.4563C34.6849 29.5923 33.7828 30.0849 32.915 30.1587C32.8401 30.1651 32.7685 30.1463 32.6824 30.0432C32.5824 29.9236 32.5 29.7194 32.5 29.4845L32.5 18.8847C32.5 18.603 32.6189 18.3343 32.8273 18.1448L42.7181 9.15307Z" fill="black"/>
</svg>
