<svg width="66" height="48" viewBox="0 0 66 48" fill="none" xmlns="http://www.w3.org/2000/svg">
<path fill-rule="evenodd" clip-rule="evenodd" d="M36.1994 1H5.7994C4.20008 1 2.60008 2.2 1.79971 3.4C1.00012 5 1.00015 6.2 1.23395 7.73674L10.4701 41.3548L6.82245 46.6H36.9992C36.9993 46.6 36.9993 46.6 36.9994 46.6C39.6503 46.5999 41.7992 44.4509 41.7992 41.8C41.7992 41.3195 41.7286 40.8555 41.5972 40.4177L32.1994 5.8L36.1994 1Z" fill="white"/>
<path d="M36.1994 1L36.9676 1.64018L38.3345 0L36.1994 0V1ZM1.79971 3.4L0.967777 2.84512L0.933115 2.89709L0.90519 2.95297L1.79971 3.4ZM1.23395 7.73674L0.245329 7.88715L0.254148 7.94512L0.269682 8.00166L1.23395 7.73674ZM10.4701 41.3548L11.2911 41.9258L11.5584 41.5414L11.4344 41.0899L10.4701 41.3548ZM6.82245 46.6L6.00146 46.0291L4.90898 47.6H6.82245V46.6ZM36.9994 46.6L36.9994 47.6L36.9995 47.6L36.9994 46.6ZM41.5972 40.4177L40.6321 40.6797L40.6356 40.6925L40.6394 40.7053L41.5972 40.4177ZM32.1994 5.8L31.4312 5.15982L31.098 5.55967L31.2343 6.06199L32.1994 5.8ZM5.7994 2H36.1994V0H5.7994V2ZM2.63164 3.95488C2.95352 3.47228 3.45344 2.96873 4.04073 2.59116C4.6306 2.21194 5.24445 2 5.7994 2V0C4.75503 0 3.76921 0.388063 2.95917 0.908835C2.14654 1.43127 1.44627 2.12772 0.967777 2.84512L2.63164 3.95488ZM2.22258 7.58633C2.0074 6.17203 2.01801 5.20016 2.69423 3.84703L0.90519 2.95297C-0.0177648 4.79984 -0.00709844 6.22797 0.245329 7.88715L2.22258 7.58633ZM11.4344 41.0899L2.19822 7.47182L0.269682 8.00166L9.50585 41.6197L11.4344 41.0899ZM7.64344 47.1709L11.2911 41.9258L9.64913 40.7839L6.00146 46.0291L7.64344 47.1709ZM36.9992 45.6H6.82245V47.6H36.9992V45.6ZM36.9994 45.6C36.9994 45.6 36.9994 45.6 36.9994 45.6C36.9994 45.6 36.9994 45.6 36.9994 45.6C36.9994 45.6 36.9994 45.6 36.9994 45.6C36.9994 45.6 36.9994 45.6 36.9994 45.6C36.9994 45.6 36.9994 45.6 36.9994 45.6C36.9994 45.6 36.9994 45.6 36.9994 45.6C36.9994 45.6 36.9994 45.6 36.9994 45.6C36.9994 45.6 36.9994 45.6 36.9994 45.6C36.9994 45.6 36.9994 45.6 36.9994 45.6C36.9994 45.6 36.9994 45.6 36.9994 45.6C36.9994 45.6 36.9994 45.6 36.9994 45.6C36.9994 45.6 36.9994 45.6 36.9994 45.6C36.9994 45.6 36.9994 45.6 36.9994 45.6C36.9994 45.6 36.9994 45.6 36.9994 45.6C36.9994 45.6 36.9994 45.6 36.9994 45.6C36.9994 45.6 36.9994 45.6 36.9994 45.6C36.9994 45.6 36.9994 45.6 36.9994 45.6C36.9994 45.6 36.9994 45.6 36.9994 45.6C36.9994 45.6 36.9994 45.6 36.9994 45.6C36.9994 45.6 36.9994 45.6 36.9994 45.6C36.9994 45.6 36.9994 45.6 36.9994 45.6C36.9994 45.6 36.9994 45.6 36.9994 45.6C36.9994 45.6 36.9994 45.6 36.9994 45.6C36.9994 45.6 36.9994 45.6 36.9994 45.6C36.9994 45.6 36.9994 45.6 36.9994 45.6C36.9994 45.6 36.9994 45.6 36.9994 45.6C36.9994 45.6 36.9994 45.6 36.9994 45.6C36.9994 45.6 36.9994 45.6 36.9994 45.6C36.9994 45.6 36.9994 45.6 36.9994 45.6C36.9994 45.6 36.9994 45.6 36.9994 45.6C36.9994 45.6 36.9994 45.6 36.9994 45.6C36.9994 45.6 36.9994 45.6 36.9994 45.6C36.9994 45.6 36.9994 45.6 36.9994 45.6C36.9994 45.6 36.9994 45.6 36.9994 45.6C36.9994 45.6 36.9994 45.6 36.9994 45.6C36.9994 45.6 36.9994 45.6 36.9994 45.6C36.9994 45.6 36.9994 45.6 36.9994 45.6C36.9994 45.6 36.9994 45.6 36.9994 45.6C36.9994 45.6 36.9994 45.6 36.9994 45.6C36.9994 45.6 36.9994 45.6 36.9994 45.6C36.9994 45.6 36.9994 45.6 36.9994 45.6C36.9994 45.6 36.9994 45.6 36.9994 45.6C36.9994 45.6 36.9994 45.6 36.9994 45.6C36.9994 45.6 36.9994 45.6 36.9994 45.6C36.9994 45.6 36.9994 45.6 36.9994 45.6C36.9994 45.6 36.9994 45.6 36.9994 45.6C36.9994 45.6 36.9994 45.6 36.9994 45.6C36.9994 45.6 36.9994 45.6 36.9994 45.6C36.9994 45.6 36.9994 45.6 36.9994 45.6C36.9994 45.6 36.9994 45.6 36.9994 45.6C36.9994 45.6 36.9994 45.6 36.9994 45.6C36.9994 45.6 36.9994 45.6 36.9994 45.6C36.9994 45.6 36.9994 45.6 36.9994 45.6C36.9994 45.6 36.9994 45.6 36.9994 45.6C36.9994 45.6 36.9994 45.6 36.9994 45.6C36.9994 45.6 36.9994 45.6 36.9994 45.6C36.9994 45.6 36.9994 45.6 36.9994 45.6C36.9994 45.6 36.9994 45.6 36.9994 45.6C36.9994 45.6 36.9994 45.6 36.9994 45.6C36.9994 45.6 36.9994 45.6 36.9994 45.6C36.9994 45.6 36.9994 45.6 36.9994 45.6C36.9994 45.6 36.9994 45.6 36.9994 45.6C36.9994 45.6 36.9994 45.6 36.9994 45.6C36.9994 45.6 36.9994 45.6 36.9994 45.6C36.9994 45.6 36.9994 45.6 36.9994 45.6C36.9994 45.6 36.9994 45.6 36.9994 45.6C36.9994 45.6 36.9994 45.6 36.9994 45.6C36.9994 45.6 36.9994 45.6 36.9994 45.6C36.9994 45.6 36.9994 45.6 36.9994 45.6C36.9994 45.6 36.9994 45.6 36.9994 45.6C36.9994 45.6 36.9994 45.6 36.9994 45.6C36.9994 45.6 36.9994 45.6 36.9994 45.6C36.9994 45.6 36.9994 45.6 36.9994 45.6C36.9994 45.6 36.9994 45.6 36.9994 45.6C36.9994 45.6 36.9994 45.6 36.9994 45.6C36.9994 45.6 36.9994 45.6 36.9994 45.6C36.9994 45.6 36.9994 45.6 36.9994 45.6C36.9994 45.6 36.9994 45.6 36.9994 45.6C36.9994 45.6 36.9994 45.6 36.9994 45.6C36.9994 45.6 36.9994 45.6 36.9994 45.6C36.9994 45.6 36.9994 45.6 36.9994 45.6C36.9994 45.6 36.9994 45.6 36.9994 45.6C36.9994 45.6 36.9994 45.6 36.9994 45.6C36.9994 45.6 36.9994 45.6 36.9994 45.6C36.9994 45.6 36.9994 45.6 36.9994 45.6C36.9994 45.6 36.9994 45.6 36.9994 45.6C36.9994 45.6 36.9994 45.6 36.9994 45.6C36.9994 45.6 36.9994 45.6 36.9994 45.6C36.9994 45.6 36.9994 45.6 36.9994 45.6C36.9994 45.6 36.9994 45.6 36.9994 45.6C36.9994 45.6 36.9994 45.6 36.9994 45.6C36.9994 45.6 36.9994 45.6 36.9994 45.6C36.9994 45.6 36.9994 45.6 36.9994 45.6C36.9994 45.6 36.9994 45.6 36.9994 45.6C36.9994 45.6 36.9994 45.6 36.9994 45.6C36.9994 45.6 36.9994 45.6 36.9994 45.6C36.9994 45.6 36.9994 45.6 36.9994 45.6C36.9994 45.6 36.9994 45.6 36.9994 45.6C36.9994 45.6 36.9994 45.6 36.9994 45.6C36.9994 45.6 36.9994 45.6 36.9994 45.6C36.9994 45.6 36.9994 45.6 36.9994 45.6C36.9994 45.6 36.9994 45.6 36.9994 45.6C36.9994 45.6 36.9994 45.6 36.9994 45.6C36.9994 45.6 36.9994 45.6 36.9994 45.6C36.9994 45.6 36.9994 45.6 36.9994 45.6C36.9994 45.6 36.9994 45.6 36.9994 45.6C36.9994 45.6 36.9994 45.6 36.9994 45.6C36.9994 45.6 36.9994 45.6 36.9994 45.6C36.9994 45.6 36.9994 45.6 36.9994 45.6C36.9994 45.6 36.9994 45.6 36.9994 45.6C36.9994 45.6 36.9994 45.6 36.9994 45.6C36.9994 45.6 36.9994 45.6 36.9994 45.6C36.9994 45.6 36.9994 45.6 36.9994 45.6C36.9994 45.6 36.9994 45.6 36.9994 45.6C36.9994 45.6 36.9994 45.6 36.9994 45.6C36.9994 45.6 36.9994 45.6 36.9994 45.6C36.9994 45.6 36.9994 45.6 36.9994 45.6C36.9994 45.6 36.9994 45.6 36.9994 45.6C36.9994 45.6 36.9994 45.6 36.9994 45.6C36.9994 45.6 36.9994 45.6 36.9994 45.6C36.9994 45.6 36.9994 45.6 36.9994 45.6C36.9994 45.6 36.9994 45.6 36.9994 45.6C36.9994 45.6 36.9994 45.6 36.9994 45.6C36.9994 45.6 36.9994 45.6 36.9994 45.6C36.9994 45.6 36.9994 45.6 36.9994 45.6C36.9994 45.6 36.9994 45.6 36.9994 45.6C36.9994 45.6 36.9994 45.6 36.9994 45.6C36.9994 45.6 36.9994 45.6 36.9994 45.6C36.9994 45.6 36.9993 45.6 36.9993 45.6C36.9993 45.6 36.9993 45.6 36.9993 45.6C36.9993 45.6 36.9993 45.6 36.9993 45.6C36.9993 45.6 36.9993 45.6 36.9993 45.6C36.9993 45.6 36.9993 45.6 36.9993 45.6C36.9993 45.6 36.9993 45.6 36.9993 45.6C36.9993 45.6 36.9993 45.6 36.9993 45.6C36.9993 45.6 36.9993 45.6 36.9993 45.6C36.9993 45.6 36.9993 45.6 36.9993 45.6C36.9993 45.6 36.9993 45.6 36.9993 45.6C36.9993 45.6 36.9993 45.6 36.9993 45.6C36.9993 45.6 36.9993 45.6 36.9993 45.6C36.9993 45.6 36.9993 45.6 36.9993 45.6C36.9993 45.6 36.9993 45.6 36.9993 45.6C36.9993 45.6 36.9993 45.6 36.9993 45.6C36.9993 45.6 36.9993 45.6 36.9993 45.6C36.9993 45.6 36.9993 45.6 36.9993 45.6C36.9993 45.6 36.9993 45.6 36.9993 45.6C36.9993 45.6 36.9993 45.6 36.9993 45.6C36.9993 45.6 36.9993 45.6 36.9993 45.6C36.9993 45.6 36.9993 45.6 36.9993 45.6C36.9993 45.6 36.9993 45.6 36.9993 45.6C36.9993 45.6 36.9993 45.6 36.9993 45.6C36.9993 45.6 36.9993 45.6 36.9993 45.6C36.9993 45.6 36.9993 45.6 36.9993 45.6C36.9993 45.6 36.9993 45.6 36.9993 45.6C36.9993 45.6 36.9993 45.6 36.9993 45.6C36.9993 45.6 36.9993 45.6 36.9993 45.6C36.9993 45.6 36.9993 45.6 36.9993 45.6C36.9993 45.6 36.9993 45.6 36.9993 45.6C36.9993 45.6 36.9993 45.6 36.9993 45.6C36.9993 45.6 36.9993 45.6 36.9993 45.6C36.9993 45.6 36.9993 45.6 36.9993 45.6C36.9993 45.6 36.9993 45.6 36.9993 45.6C36.9993 45.6 36.9993 45.6 36.9993 45.6C36.9993 45.6 36.9993 45.6 36.9993 45.6C36.9993 45.6 36.9993 45.6 36.9993 45.6C36.9993 45.6 36.9993 45.6 36.9993 45.6C36.9993 45.6 36.9993 45.6 36.9993 45.6C36.9993 45.6 36.9993 45.6 36.9993 45.6C36.9993 45.6 36.9993 45.6 36.9993 45.6C36.9993 45.6 36.9993 45.6 36.9993 45.6C36.9993 45.6 36.9993 45.6 36.9993 45.6C36.9993 45.6 36.9993 45.6 36.9993 45.6C36.9993 45.6 36.9993 45.6 36.9993 45.6C36.9993 45.6 36.9993 45.6 36.9993 45.6C36.9993 45.6 36.9993 45.6 36.9993 45.6C36.9993 45.6 36.9993 45.6 36.9993 45.6C36.9993 45.6 36.9993 45.6 36.9993 45.6C36.9993 45.6 36.9993 45.6 36.9993 45.6C36.9993 45.6 36.9993 45.6 36.9993 45.6C36.9993 45.6 36.9993 45.6 36.9993 45.6C36.9993 45.6 36.9993 45.6 36.9993 45.6C36.9993 45.6 36.9993 45.6 36.9993 45.6C36.9993 45.6 36.9993 45.6 36.9993 45.6C36.9993 45.6 36.9993 45.6 36.9993 45.6C36.9993 45.6 36.9993 45.6 36.9993 45.6C36.9993 45.6 36.9993 45.6 36.9993 45.6C36.9993 45.6 36.9993 45.6 36.9993 45.6C36.9993 45.6 36.9993 45.6 36.9993 45.6C36.9993 45.6 36.9993 45.6 36.9993 45.6C36.9993 45.6 36.9993 45.6 36.9993 45.6C36.9993 45.6 36.9993 45.6 36.9993 45.6C36.9993 45.6 36.9993 45.6 36.9993 45.6C36.9993 45.6 36.9993 45.6 36.9993 45.6C36.9993 45.6 36.9993 45.6 36.9993 45.6C36.9993 45.6 36.9993 45.6 36.9993 45.6C36.9993 45.6 36.9993 45.6 36.9993 45.6C36.9993 45.6 36.9993 45.6 36.9993 45.6C36.9993 45.6 36.9993 45.6 36.9993 45.6C36.9993 45.6 36.9993 45.6 36.9993 45.6C36.9993 45.6 36.9993 45.6 36.9993 45.6C36.9993 45.6 36.9993 45.6 36.9993 45.6C36.9993 45.6 36.9993 45.6 36.9993 45.6C36.9993 45.6 36.9993 45.6 36.9993 45.6C36.9993 45.6 36.9993 45.6 36.9993 45.6C36.9993 45.6 36.9993 45.6 36.9993 45.6C36.9993 45.6 36.9993 45.6 36.9993 45.6C36.9993 45.6 36.9993 45.6 36.9993 45.6C36.9993 45.6 36.9993 45.6 36.9993 45.6C36.9993 45.6 36.9993 45.6 36.9993 45.6C36.9993 45.6 36.9993 45.6 36.9993 45.6C36.9993 45.6 36.9993 45.6 36.9993 45.6C36.9993 45.6 36.9993 45.6 36.9993 45.6C36.9993 45.6 36.9993 45.6 36.9993 45.6C36.9993 45.6 36.9993 45.6 36.9993 45.6C36.9993 45.6 36.9993 45.6 36.9993 45.6C36.9993 45.6 36.9993 45.6 36.9993 45.6C36.9993 45.6 36.9993 45.6 36.9993 45.6C36.9993 45.6 36.9993 45.6 36.9993 45.6C36.9993 45.6 36.9993 45.6 36.9993 45.6C36.9993 45.6 36.9993 45.6 36.9993 45.6C36.9993 45.6 36.9993 45.6 36.9993 45.6C36.9993 45.6 36.9993 45.6 36.9993 45.6C36.9993 45.6 36.9993 45.6 36.9993 45.6C36.9993 45.6 36.9993 45.6 36.9993 45.6C36.9993 45.6 36.9993 45.6 36.9993 45.6C36.9993 45.6 36.9993 45.6 36.9993 45.6C36.9993 45.6 36.9993 45.6 36.9993 45.6C36.9993 45.6 36.9993 45.6 36.9993 45.6C36.9993 45.6 36.9993 45.6 36.9993 45.6C36.9993 45.6 36.9993 45.6 36.9993 45.6C36.9993 45.6 36.9993 45.6 36.9993 45.6C36.9993 45.6 36.9993 45.6 36.9993 45.6C36.9993 45.6 36.9993 45.6 36.9993 45.6C36.9993 45.6 36.9993 45.6 36.9993 45.6C36.9993 45.6 36.9993 45.6 36.9993 45.6C36.9993 45.6 36.9993 45.6 36.9993 45.6C36.9993 45.6 36.9993 45.6 36.9993 45.6C36.9993 45.6 36.9993 45.6 36.9993 45.6C36.9993 45.6 36.9993 45.6 36.9993 45.6C36.9993 45.6 36.9993 45.6 36.9993 45.6C36.9993 45.6 36.9993 45.6 36.9993 45.6C36.9993 45.6 36.9993 45.6 36.9993 45.6C36.9993 45.6 36.9993 45.6 36.9993 45.6C36.9993 45.6 36.9993 45.6 36.9993 45.6C36.9993 45.6 36.9993 45.6 36.9993 45.6C36.9993 45.6 36.9993 45.6 36.9993 45.6C36.9993 45.6 36.9993 45.6 36.9993 45.6C36.9993 45.6 36.9993 45.6 36.9993 45.6C36.9993 45.6 36.9993 45.6 36.9993 45.6C36.9993 45.6 36.9993 45.6 36.9993 45.6C36.9993 45.6 36.9993 45.6 36.9993 45.6C36.9993 45.6 36.9993 45.6 36.9993 45.6C36.9993 45.6 36.9993 45.6 36.9993 45.6C36.9993 45.6 36.9993 45.6 36.9993 45.6C36.9993 45.6 36.9993 45.6 36.9993 45.6C36.9993 45.6 36.9993 45.6 36.9993 45.6C36.9993 45.6 36.9993 45.6 36.9993 45.6C36.9993 45.6 36.9993 45.6 36.9993 45.6C36.9993 45.6 36.9993 45.6 36.9993 45.6C36.9993 45.6 36.9993 45.6 36.9993 45.6C36.9993 45.6 36.9993 45.6 36.9993 45.6C36.9993 45.6 36.9993 45.6 36.9993 45.6C36.9993 45.6 36.9993 45.6 36.9993 45.6C36.9993 45.6 36.9993 45.6 36.9993 45.6C36.9993 45.6 36.9993 45.6 36.9993 45.6C36.9993 45.6 36.9993 45.6 36.9993 45.6C36.9993 45.6 36.9993 45.6 36.9993 45.6C36.9993 45.6 36.9993 45.6 36.9993 45.6C36.9993 45.6 36.9993 45.6 36.9993 45.6C36.9993 45.6 36.9993 45.6 36.9993 45.6C36.9993 45.6 36.9993 45.6 36.9993 45.6C36.9993 45.6 36.9993 45.6 36.9993 45.6C36.9993 45.6 36.9993 45.6 36.9993 45.6C36.9993 45.6 36.9993 45.6 36.9993 45.6C36.9993 45.6 36.9993 45.6 36.9993 45.6C36.9993 45.6 36.9993 45.6 36.9993 45.6C36.9993 45.6 36.9993 45.6 36.9993 45.6C36.9993 45.6 36.9993 45.6 36.9993 45.6C36.9993 45.6 36.9993 45.6 36.9993 45.6C36.9993 45.6 36.9993 45.6 36.9993 45.6C36.9993 45.6 36.9993 45.6 36.9993 45.6C36.9993 45.6 36.9993 45.6 36.9993 45.6C36.9993 45.6 36.9993 45.6 36.9993 45.6C36.9993 45.6 36.9993 45.6 36.9993 45.6C36.9993 45.6 36.9993 45.6 36.9993 45.6C36.9993 45.6 36.9993 45.6 36.9993 45.6C36.9993 45.6 36.9993 45.6 36.9993 45.6C36.9993 45.6 36.9993 45.6 36.9993 45.6C36.9993 45.6 36.9993 45.6 36.9993 45.6C36.9993 45.6 36.9993 45.6 36.9993 45.6C36.9993 45.6 36.9993 45.6 36.9993 45.6C36.9993 45.6 36.9993 45.6 36.9993 45.6C36.9993 45.6 36.9993 45.6 36.9993 45.6C36.9993 45.6 36.9993 45.6 36.9993 45.6C36.9993 45.6 36.9993 45.6 36.9993 45.6C36.9993 45.6 36.9993 45.6 36.9993 45.6C36.9993 45.6 36.9993 45.6 36.9993 45.6C36.9993 45.6 36.9993 45.6 36.9993 45.6C36.9993 45.6 36.9993 45.6 36.9993 45.6C36.9993 45.6 36.9993 45.6 36.9993 45.6C36.9993 45.6 36.9993 45.6 36.9993 45.6C36.9993 45.6 36.9993 45.6 36.9993 45.6C36.9993 45.6 36.9993 45.6 36.9993 45.6C36.9993 45.6 36.9993 45.6 36.9993 45.6C36.9993 45.6 36.9993 45.6 36.9993 45.6C36.9993 45.6 36.9993 45.6 36.9993 45.6C36.9993 45.6 36.9993 45.6 36.9993 45.6C36.9993 45.6 36.9993 45.6 36.9993 45.6C36.9993 45.6 36.9993 45.6 36.9993 45.6C36.9993 45.6 36.9993 45.6 36.9993 45.6C36.9993 45.6 36.9993 45.6 36.9993 45.6C36.9993 45.6 36.9993 45.6 36.9993 45.6C36.9993 45.6 36.9993 45.6 36.9993 45.6C36.9993 45.6 36.9993 45.6 36.9993 45.6C36.9993 45.6 36.9993 45.6 36.9993 45.6C36.9993 45.6 36.9993 45.6 36.9993 45.6C36.9993 45.6 36.9993 45.6 36.9993 45.6C36.9993 45.6 36.9993 45.6 36.9993 45.6C36.9993 45.6 36.9993 45.6 36.9993 45.6C36.9993 45.6 36.9993 45.6 36.9993 45.6C36.9993 45.6 36.9993 45.6 36.9993 45.6C36.9993 45.6 36.9993 45.6 36.9993 45.6C36.9993 45.6 36.9993 45.6 36.9993 45.6C36.9993 45.6 36.9993 45.6 36.9993 45.6C36.9993 45.6 36.9993 45.6 36.9993 45.6C36.9993 45.6 36.9993 45.6 36.9993 45.6C36.9993 45.6 36.9993 45.6 36.9993 45.6C36.9993 45.6 36.9993 45.6 36.9993 45.6C36.9993 45.6 36.9993 45.6 36.9993 45.6C36.9993 45.6 36.9993 45.6 36.9993 45.6C36.9993 45.6 36.9993 45.6 36.9993 45.6C36.9993 45.6 36.9993 45.6 36.9993 45.6C36.9993 45.6 36.9993 45.6 36.9993 45.6C36.9993 45.6 36.9993 45.6 36.9993 45.6C36.9993 45.6 36.9993 45.6 36.9993 45.6C36.9993 45.6 36.9993 45.6 36.9993 45.6C36.9993 45.6 36.9993 45.6 36.9993 45.6C36.9993 45.6 36.9993 45.6 36.9993 45.6C36.9993 45.6 36.9993 45.6 36.9993 45.6C36.9993 45.6 36.9993 45.6 36.9993 45.6C36.9993 45.6 36.9993 45.6 36.9993 45.6C36.9993 45.6 36.9993 45.6 36.9993 45.6C36.9993 45.6 36.9993 45.6 36.9993 45.6C36.9993 45.6 36.9993 45.6 36.9993 45.6C36.9993 45.6 36.9993 45.6 36.9993 45.6C36.9993 45.6 36.9993 45.6 36.9993 45.6C36.9993 45.6 36.9993 45.6 36.9993 45.6C36.9992 45.6 36.9992 45.6 36.9992 45.6C36.9992 45.6 36.9992 45.6 36.9992 45.6C36.9992 45.6 36.9992 45.6 36.9992 45.6C36.9992 45.6 36.9992 45.6 36.9992 45.6C36.9992 45.6 36.9992 45.6 36.9992 45.6C36.9992 45.6 36.9992 45.6 36.9992 45.6C36.9992 45.6 36.9992 45.6 36.9992 45.6C36.9992 45.6 36.9992 45.6 36.9992 45.6C36.9992 45.6 36.9992 45.6 36.9992 45.6C36.9992 45.6 36.9992 45.6 36.9992 45.6C36.9992 45.6 36.9992 45.6 36.9992 45.6C36.9992 45.6 36.9992 45.6 36.9992 45.6C36.9992 45.6 36.9992 45.6 36.9992 45.6C36.9992 45.6 36.9992 45.6 36.9992 45.6C36.9992 45.6 36.9992 45.6 36.9992 45.6C36.9992 45.6 36.9992 45.6 36.9992 45.6C36.9992 45.6 36.9992 45.6 36.9992 45.6C36.9992 45.6 36.9992 45.6 36.9992 45.6C36.9992 45.6 36.9992 45.6 36.9992 45.6C36.9992 45.6 36.9992 45.6 36.9992 45.6C36.9992 45.6 36.9992 45.6 36.9992 45.6C36.9992 45.6 36.9992 45.6 36.9992 45.6C36.9992 45.6 36.9992 45.6 36.9992 45.6C36.9992 45.6 36.9992 45.6 36.9992 45.6C36.9992 45.6 36.9992 45.6 36.9992 45.6C36.9992 45.6 36.9992 45.6 36.9992 45.6C36.9992 45.6 36.9992 45.6 36.9992 45.6C36.9992 45.6 36.9992 45.6 36.9992 45.6C36.9992 45.6 36.9992 45.6 36.9992 45.6C36.9992 45.6 36.9992 45.6 36.9992 45.6C36.9992 45.6 36.9992 45.6 36.9992 45.6C36.9992 45.6 36.9992 45.6 36.9992 45.6C36.9992 45.6 36.9992 45.6 36.9992 45.6C36.9992 45.6 36.9992 45.6 36.9992 45.6C36.9992 45.6 36.9992 45.6 36.9992 45.6C36.9992 45.6 36.9992 45.6 36.9992 45.6C36.9992 45.6 36.9992 45.6 36.9992 45.6C36.9992 45.6 36.9992 45.6 36.9992 45.6C36.9992 45.6 36.9992 45.6 36.9992 45.6C36.9992 45.6 36.9992 45.6 36.9992 45.6C36.9992 45.6 36.9992 45.6 36.9992 45.6C36.9992 45.6 36.9992 45.6 36.9992 45.6C36.9992 45.6 36.9992 45.6 36.9992 45.6C36.9992 45.6 36.9992 45.6 36.9992 45.6C36.9992 45.6 36.9992 45.6 36.9992 45.6C36.9992 45.6 36.9992 45.6 36.9992 45.6C36.9992 45.6 36.9992 45.6 36.9992 45.6C36.9992 45.6 36.9992 45.6 36.9992 45.6C36.9992 45.6 36.9992 45.6 36.9992 45.6C36.9992 45.6 36.9992 45.6 36.9992 45.6C36.9992 45.6 36.9992 45.6 36.9992 45.6C36.9992 45.6 36.9992 45.6 36.9992 45.6C36.9992 45.6 36.9992 45.6 36.9992 45.6C36.9992 45.6 36.9992 45.6 36.9992 45.6C36.9992 45.6 36.9992 45.6 36.9992 45.6C36.9992 45.6 36.9992 45.6 36.9992 45.6C36.9992 45.6 36.9992 45.6 36.9992 45.6C36.9992 45.6 36.9992 45.6 36.9992 45.6C36.9992 45.6 36.9992 45.6 36.9992 45.6C36.9992 45.6 36.9992 45.6 36.9992 45.6C36.9992 45.6 36.9992 45.6 36.9992 45.6C36.9992 45.6 36.9992 45.6 36.9992 45.6C36.9992 45.6 36.9992 45.6 36.9992 45.6C36.9992 45.6 36.9992 45.6 36.9992 45.6C36.9992 45.6 36.9992 45.6 36.9992 45.6C36.9992 45.6 36.9992 45.6 36.9992 45.6C36.9992 45.6 36.9992 45.6 36.9992 45.6C36.9992 45.6 36.9992 45.6 36.9992 45.6C36.9992 45.6 36.9992 45.6 36.9992 45.6C36.9992 45.6 36.9992 45.6 36.9992 45.6C36.9992 45.6 36.9992 45.6 36.9992 45.6C36.9992 45.6 36.9992 45.6 36.9992 45.6C36.9992 45.6 36.9992 45.6 36.9992 45.6C36.9992 45.6 36.9992 45.6 36.9992 45.6C36.9992 45.6 36.9992 45.6 36.9992 45.6C36.9992 45.6 36.9992 45.6 36.9992 45.6C36.9992 45.6 36.9992 45.6 36.9992 45.6C36.9992 45.6 36.9992 45.6 36.9992 45.6C36.9992 45.6 36.9992 45.6 36.9992 45.6C36.9992 45.6 36.9992 45.6 36.9992 45.6C36.9992 45.6 36.9992 45.6 36.9992 45.6C36.9992 45.6 36.9992 45.6 36.9992 45.6C36.9992 45.6 36.9992 45.6 36.9992 45.6C36.9992 45.6 36.9992 45.6 36.9992 45.6C36.9992 45.6 36.9992 45.6 36.9992 45.6C36.9992 45.6 36.9992 45.6 36.9992 45.6C36.9992 45.6 36.9992 45.6 36.9992 45.6C36.9992 45.6 36.9992 45.6 36.9992 45.6C36.9992 45.6 36.9992 45.6 36.9992 45.6C36.9992 45.6 36.9992 45.6 36.9992 45.6C36.9992 45.6 36.9992 45.6 36.9992 45.6C36.9992 45.6 36.9992 45.6 36.9992 45.6C36.9992 45.6 36.9992 45.6 36.9992 45.6C36.9992 45.6 36.9992 45.6 36.9992 45.6C36.9992 45.6 36.9992 45.6 36.9992 45.6C36.9992 45.6 36.9992 45.6 36.9992 45.6C36.9992 45.6 36.9992 45.6 36.9992 45.6C36.9992 45.6 36.9992 45.6 36.9992 45.6C36.9992 45.6 36.9992 45.6 36.9992 45.6C36.9992 45.6 36.9992 45.6 36.9992 45.6C36.9992 45.6 36.9992 45.6 36.9992 45.6C36.9992 45.6 36.9992 45.6 36.9992 45.6C36.9992 45.6 36.9992 45.6 36.9992 45.6C36.9992 45.6 36.9992 45.6 36.9992 45.6C36.9992 45.6 36.9992 45.6 36.9992 45.6C36.9992 45.6 36.9992 45.6 36.9992 45.6C36.9992 45.6 36.9992 45.6 36.9992 45.6C36.9992 45.6 36.9992 45.6 36.9992 45.6C36.9992 45.6 36.9992 45.6 36.9992 45.6C36.9992 45.6 36.9992 45.6 36.9992 45.6C36.9992 45.6 36.9992 45.6 36.9992 45.6C36.9992 45.6 36.9992 45.6 36.9992 45.6C36.9992 45.6 36.9992 45.6 36.9992 45.6C36.9992 45.6 36.9992 45.6 36.9992 45.6C36.9992 45.6 36.9992 45.6 36.9992 45.6C36.9992 45.6 36.9992 45.6 36.9992 45.6C36.9992 45.6 36.9992 45.6 36.9992 45.6C36.9992 45.6 36.9992 45.6 36.9992 45.6C36.9992 45.6 36.9992 45.6 36.9992 45.6C36.9992 45.6 36.9992 45.6 36.9992 45.6C36.9992 45.6 36.9992 45.6 36.9992 45.6C36.9992 45.6 36.9992 45.6 36.9992 45.6C36.9992 45.6 36.9992 45.6 36.9992 45.6C36.9992 45.6 36.9992 45.6 36.9992 45.6C36.9992 45.6 36.9992 45.6 36.9992 45.6C36.9992 45.6 36.9992 45.6 36.9992 45.6C36.9992 45.6 36.9992 45.6 36.9992 45.6C36.9992 45.6 36.9992 45.6 36.9992 45.6C36.9992 45.6 36.9992 45.6 36.9992 45.6C36.9992 45.6 36.9992 45.6 36.9992 45.6C36.9992 45.6 36.9992 45.6 36.9992 45.6C36.9992 45.6 36.9992 45.6 36.9992 45.6C36.9992 45.6 36.9992 45.6 36.9992 45.6C36.9992 45.6 36.9992 45.6 36.9992 45.6C36.9992 45.6 36.9992 45.6 36.9992 45.6C36.9992 45.6 36.9992 45.6 36.9992 45.6C36.9992 45.6 36.9992 45.6 36.9992 45.6C36.9992 45.6 36.9992 45.6 36.9992 45.6C36.9992 45.6 36.9992 45.6 36.9992 45.6C36.9992 45.6 36.9992 45.6 36.9992 45.6C36.9992 45.6 36.9992 45.6 36.9992 45.6C36.9992 45.6 36.9992 45.6 36.9992 45.6C36.9992 45.6 36.9992 45.6 36.9992 45.6C36.9992 45.6 36.9992 45.6 36.9992 45.6C36.9992 45.6 36.9992 45.6 36.9992 45.6C36.9992 45.6 36.9992 45.6 36.9992 45.6C36.9992 45.6 36.9992 45.6 36.9992 45.6C36.9992 45.6 36.9992 45.6 36.9992 45.6C36.9992 45.6 36.9992 45.6 36.9992 45.6C36.9992 45.6 36.9992 45.6 36.9992 45.6C36.9992 45.6 36.9992 45.6 36.9992 45.6C36.9992 45.6 36.9992 45.6 36.9992 45.6C36.9992 45.6 36.9992 45.6 36.9992 45.6C36.9992 45.6 36.9992 45.6 36.9992 45.6C36.9992 45.6 36.9992 45.6 36.9992 45.6C36.9992 45.6 36.9992 45.6 36.9992 45.6C36.9992 45.6 36.9992 45.6 36.9992 45.6C36.9992 45.6 36.9992 45.6 36.9992 45.6C36.9992 45.6 36.9992 45.6 36.9992 45.6C36.9992 45.6 36.9992 45.6 36.9992 45.6C36.9992 45.6 36.9992 45.6 36.9992 45.6C36.9992 45.6 36.9992 45.6 36.9992 45.6C36.9992 45.6 36.9992 45.6 36.9992 45.6C36.9992 45.6 36.9992 45.6 36.9992 45.6C36.9992 45.6 36.9992 45.6 36.9992 45.6V47.6C36.9992 47.6 36.9992 47.6 36.9992 47.6C36.9992 47.6 36.9992 47.6 36.9992 47.6C36.9992 47.6 36.9992 47.6 36.9992 47.6C36.9992 47.6 36.9992 47.6 36.9992 47.6C36.9992 47.6 36.9992 47.6 36.9992 47.6C36.9992 47.6 36.9992 47.6 36.9992 47.6C36.9992 47.6 36.9992 47.6 36.9992 47.6C36.9992 47.6 36.9992 47.6 36.9992 47.6C36.9992 47.6 36.9992 47.6 36.9992 47.6C36.9992 47.6 36.9992 47.6 36.9992 47.6C36.9992 47.6 36.9992 47.6 36.9992 47.6C36.9992 47.6 36.9992 47.6 36.9992 47.6C36.9992 47.6 36.9992 47.6 36.9992 47.6C36.9992 47.6 36.9992 47.6 36.9992 47.6C36.9992 47.6 36.9992 47.6 36.9992 47.6C36.9992 47.6 36.9992 47.6 36.9992 47.6C36.9992 47.6 36.9992 47.6 36.9992 47.6C36.9992 47.6 36.9992 47.6 36.9992 47.6C36.9992 47.6 36.9992 47.6 36.9992 47.6C36.9992 47.6 36.9992 47.6 36.9992 47.6C36.9992 47.6 36.9992 47.6 36.9992 47.6C36.9992 47.6 36.9992 47.6 36.9992 47.6C36.9992 47.6 36.9992 47.6 36.9992 47.6C36.9992 47.6 36.9992 47.6 36.9992 47.6C36.9992 47.6 36.9992 47.6 36.9992 47.6C36.9992 47.6 36.9992 47.6 36.9992 47.6C36.9992 47.6 36.9992 47.6 36.9992 47.6C36.9992 47.6 36.9992 47.6 36.9992 47.6C36.9992 47.6 36.9992 47.6 36.9992 47.6C36.9992 47.6 36.9992 47.6 36.9992 47.6C36.9992 47.6 36.9992 47.6 36.9992 47.6C36.9992 47.6 36.9992 47.6 36.9992 47.6C36.9992 47.6 36.9992 47.6 36.9992 47.6C36.9992 47.6 36.9992 47.6 36.9992 47.6C36.9992 47.6 36.9992 47.6 36.9992 47.6C36.9992 47.6 36.9992 47.6 36.9992 47.6C36.9992 47.6 36.9992 47.6 36.9992 47.6C36.9992 47.6 36.9992 47.6 36.9992 47.6C36.9992 47.6 36.9992 47.6 36.9992 47.6C36.9992 47.6 36.9992 47.6 36.9992 47.6C36.9992 47.6 36.9992 47.6 36.9992 47.6C36.9992 47.6 36.9992 47.6 36.9992 47.6C36.9992 47.6 36.9992 47.6 36.9992 47.6C36.9992 47.6 36.9992 47.6 36.9992 47.6C36.9992 47.6 36.9992 47.6 36.9992 47.6C36.9992 47.6 36.9992 47.6 36.9992 47.6C36.9992 47.6 36.9992 47.6 36.9992 47.6C36.9992 47.6 36.9992 47.6 36.9992 47.6C36.9992 47.6 36.9992 47.6 36.9992 47.6C36.9992 47.6 36.9992 47.6 36.9992 47.6C36.9992 47.6 36.9992 47.6 36.9992 47.6C36.9992 47.6 36.9992 47.6 36.9992 47.6C36.9992 47.6 36.9992 47.6 36.9992 47.6C36.9992 47.6 36.9992 47.6 36.9992 47.6C36.9992 47.6 36.9992 47.6 36.9992 47.6C36.9992 47.6 36.9992 47.6 36.9992 47.6C36.9992 47.6 36.9992 47.6 36.9992 47.6C36.9992 47.6 36.9992 47.6 36.9992 47.6C36.9992 47.6 36.9992 47.6 36.9992 47.6C36.9992 47.6 36.9992 47.6 36.9992 47.6C36.9992 47.6 36.9992 47.6 36.9992 47.6C36.9992 47.6 36.9992 47.6 36.9992 47.6C36.9992 47.6 36.9992 47.6 36.9992 47.6C36.9992 47.6 36.9992 47.6 36.9992 47.6C36.9992 47.6 36.9992 47.6 36.9992 47.6C36.9992 47.6 36.9992 47.6 36.9992 47.6C36.9992 47.6 36.9992 47.6 36.9992 47.6C36.9992 47.6 36.9992 47.6 36.9992 47.6C36.9992 47.6 36.9992 47.6 36.9992 47.6C36.9992 47.6 36.9992 47.6 36.9992 47.6C36.9992 47.6 36.9992 47.6 36.9992 47.6C36.9992 47.6 36.9992 47.6 36.9992 47.6C36.9992 47.6 36.9992 47.6 36.9992 47.6C36.9992 47.6 36.9992 47.6 36.9992 47.6C36.9992 47.6 36.9992 47.6 36.9992 47.6C36.9992 47.6 36.9992 47.6 36.9992 47.6C36.9992 47.6 36.9992 47.6 36.9992 47.6C36.9992 47.6 36.9992 47.6 36.9992 47.6C36.9992 47.6 36.9992 47.6 36.9992 47.6C36.9992 47.6 36.9992 47.6 36.9992 47.6C36.9992 47.6 36.9992 47.6 36.9992 47.6C36.9992 47.6 36.9992 47.6 36.9992 47.6C36.9992 47.6 36.9992 47.6 36.9992 47.6C36.9992 47.6 36.9992 47.6 36.9992 47.6C36.9992 47.6 36.9992 47.6 36.9992 47.6C36.9992 47.6 36.9992 47.6 36.9992 47.6C36.9992 47.6 36.9992 47.6 36.9992 47.6C36.9992 47.6 36.9992 47.6 36.9992 47.6C36.9992 47.6 36.9992 47.6 36.9992 47.6C36.9992 47.6 36.9992 47.6 36.9992 47.6C36.9992 47.6 36.9992 47.6 36.9992 47.6C36.9992 47.6 36.9992 47.6 36.9992 47.6C36.9992 47.6 36.9992 47.6 36.9992 47.6C36.9992 47.6 36.9992 47.6 36.9992 47.6C36.9992 47.6 36.9992 47.6 36.9992 47.6C36.9992 47.6 36.9992 47.6 36.9992 47.6C36.9992 47.6 36.9992 47.6 36.9992 47.6C36.9992 47.6 36.9992 47.6 36.9992 47.6C36.9992 47.6 36.9992 47.6 36.9992 47.6C36.9992 47.6 36.9992 47.6 36.9992 47.6C36.9992 47.6 36.9992 47.6 36.9992 47.6C36.9992 47.6 36.9992 47.6 36.9992 47.6C36.9992 47.6 36.9992 47.6 36.9992 47.6C36.9992 47.6 36.9992 47.6 36.9992 47.6C36.9992 47.6 36.9992 47.6 36.9992 47.6C36.9992 47.6 36.9992 47.6 36.9992 47.6C36.9992 47.6 36.9992 47.6 36.9992 47.6C36.9992 47.6 36.9992 47.6 36.9992 47.6C36.9992 47.6 36.9992 47.6 36.9992 47.6C36.9992 47.6 36.9992 47.6 36.9992 47.6C36.9992 47.6 36.9992 47.6 36.9992 47.6C36.9992 47.6 36.9992 47.6 36.9992 47.6C36.9992 47.6 36.9992 47.6 36.9992 47.6C36.9992 47.6 36.9992 47.6 36.9992 47.6C36.9992 47.6 36.9992 47.6 36.9992 47.6C36.9992 47.6 36.9992 47.6 36.9992 47.6C36.9992 47.6 36.9992 47.6 36.9992 47.6C36.9992 47.6 36.9992 47.6 36.9992 47.6C36.9992 47.6 36.9992 47.6 36.9992 47.6C36.9992 47.6 36.9992 47.6 36.9992 47.6C36.9992 47.6 36.9992 47.6 36.9992 47.6C36.9992 47.6 36.9992 47.6 36.9992 47.6C36.9992 47.6 36.9992 47.6 36.9992 47.6C36.9992 47.6 36.9992 47.6 36.9992 47.6C36.9992 47.6 36.9992 47.6 36.9992 47.6C36.9992 47.6 36.9992 47.6 36.9992 47.6C36.9992 47.6 36.9992 47.6 36.9992 47.6C36.9992 47.6 36.9992 47.6 36.9992 47.6C36.9992 47.6 36.9992 47.6 36.9992 47.6C36.9992 47.6 36.9992 47.6 36.9992 47.6C36.9992 47.6 36.9992 47.6 36.9992 47.6C36.9992 47.6 36.9992 47.6 36.9992 47.6C36.9992 47.6 36.9992 47.6 36.9992 47.6C36.9992 47.6 36.9992 47.6 36.9992 47.6C36.9992 47.6 36.9992 47.6 36.9992 47.6C36.9992 47.6 36.9992 47.6 36.9992 47.6C36.9992 47.6 36.9992 47.6 36.9992 47.6C36.9992 47.6 36.9992 47.6 36.9992 47.6C36.9992 47.6 36.9992 47.6 36.9992 47.6C36.9992 47.6 36.9992 47.6 36.9992 47.6C36.9992 47.6 36.9992 47.6 36.9992 47.6C36.9992 47.6 36.9992 47.6 36.9992 47.6C36.9992 47.6 36.9992 47.6 36.9992 47.6C36.9992 47.6 36.9992 47.6 36.9992 47.6C36.9992 47.6 36.9992 47.6 36.9992 47.6C36.9992 47.6 36.9992 47.6 36.9992 47.6C36.9992 47.6 36.9992 47.6 36.9992 47.6C36.9992 47.6 36.9992 47.6 36.9992 47.6C36.9992 47.6 36.9992 47.6 36.9992 47.6C36.9992 47.6 36.9992 47.6 36.9992 47.6C36.9992 47.6 36.9992 47.6 36.9992 47.6C36.9992 47.6 36.9992 47.6 36.9992 47.6C36.9992 47.6 36.9992 47.6 36.9992 47.6C36.9992 47.6 36.9992 47.6 36.9992 47.6C36.9992 47.6 36.9992 47.6 36.9992 47.6C36.9992 47.6 36.9992 47.6 36.9992 47.6C36.9992 47.6 36.9992 47.6 36.9992 47.6C36.9992 47.6 36.9992 47.6 36.9992 47.6C36.9992 47.6 36.9992 47.6 36.9992 47.6C36.9992 47.6 36.9992 47.6 36.9992 47.6C36.9992 47.6 36.9992 47.6 36.9992 47.6C36.9992 47.6 36.9992 47.6 36.9992 47.6C36.9992 47.6 36.9992 47.6 36.9992 47.6C36.9992 47.6 36.9992 47.6 36.9992 47.6C36.9992 47.6 36.9992 47.6 36.9993 47.6C36.9993 47.6 36.9993 47.6 36.9993 47.6C36.9993 47.6 36.9993 47.6 36.9993 47.6C36.9993 47.6 36.9993 47.6 36.9993 47.6C36.9993 47.6 36.9993 47.6 36.9993 47.6C36.9993 47.6 36.9993 47.6 36.9993 47.6C36.9993 47.6 36.9993 47.6 36.9993 47.6C36.9993 47.6 36.9993 47.6 36.9993 47.6C36.9993 47.6 36.9993 47.6 36.9993 47.6C36.9993 47.6 36.9993 47.6 36.9993 47.6C36.9993 47.6 36.9993 47.6 36.9993 47.6C36.9993 47.6 36.9993 47.6 36.9993 47.6C36.9993 47.6 36.9993 47.6 36.9993 47.6C36.9993 47.6 36.9993 47.6 36.9993 47.6C36.9993 47.6 36.9993 47.6 36.9993 47.6C36.9993 47.6 36.9993 47.6 36.9993 47.6C36.9993 47.6 36.9993 47.6 36.9993 47.6C36.9993 47.6 36.9993 47.6 36.9993 47.6C36.9993 47.6 36.9993 47.6 36.9993 47.6C36.9993 47.6 36.9993 47.6 36.9993 47.6C36.9993 47.6 36.9993 47.6 36.9993 47.6C36.9993 47.6 36.9993 47.6 36.9993 47.6C36.9993 47.6 36.9993 47.6 36.9993 47.6C36.9993 47.6 36.9993 47.6 36.9993 47.6C36.9993 47.6 36.9993 47.6 36.9993 47.6C36.9993 47.6 36.9993 47.6 36.9993 47.6C36.9993 47.6 36.9993 47.6 36.9993 47.6C36.9993 47.6 36.9993 47.6 36.9993 47.6C36.9993 47.6 36.9993 47.6 36.9993 47.6C36.9993 47.6 36.9993 47.6 36.9993 47.6C36.9993 47.6 36.9993 47.6 36.9993 47.6C36.9993 47.6 36.9993 47.6 36.9993 47.6C36.9993 47.6 36.9993 47.6 36.9993 47.6C36.9993 47.6 36.9993 47.6 36.9993 47.6C36.9993 47.6 36.9993 47.6 36.9993 47.6C36.9993 47.6 36.9993 47.6 36.9993 47.6C36.9993 47.6 36.9993 47.6 36.9993 47.6C36.9993 47.6 36.9993 47.6 36.9993 47.6C36.9993 47.6 36.9993 47.6 36.9993 47.6C36.9993 47.6 36.9993 47.6 36.9993 47.6C36.9993 47.6 36.9993 47.6 36.9993 47.6C36.9993 47.6 36.9993 47.6 36.9993 47.6C36.9993 47.6 36.9993 47.6 36.9993 47.6C36.9993 47.6 36.9993 47.6 36.9993 47.6C36.9993 47.6 36.9993 47.6 36.9993 47.6C36.9993 47.6 36.9993 47.6 36.9993 47.6C36.9993 47.6 36.9993 47.6 36.9993 47.6C36.9993 47.6 36.9993 47.6 36.9993 47.6C36.9993 47.6 36.9993 47.6 36.9993 47.6C36.9993 47.6 36.9993 47.6 36.9993 47.6C36.9993 47.6 36.9993 47.6 36.9993 47.6C36.9993 47.6 36.9993 47.6 36.9993 47.6C36.9993 47.6 36.9993 47.6 36.9993 47.6C36.9993 47.6 36.9993 47.6 36.9993 47.6C36.9993 47.6 36.9993 47.6 36.9993 47.6C36.9993 47.6 36.9993 47.6 36.9993 47.6C36.9993 47.6 36.9993 47.6 36.9993 47.6C36.9993 47.6 36.9993 47.6 36.9993 47.6C36.9993 47.6 36.9993 47.6 36.9993 47.6C36.9993 47.6 36.9993 47.6 36.9993 47.6C36.9993 47.6 36.9993 47.6 36.9993 47.6C36.9993 47.6 36.9993 47.6 36.9993 47.6C36.9993 47.6 36.9993 47.6 36.9993 47.6C36.9993 47.6 36.9993 47.6 36.9993 47.6C36.9993 47.6 36.9993 47.6 36.9993 47.6C36.9993 47.6 36.9993 47.6 36.9993 47.6C36.9993 47.6 36.9993 47.6 36.9993 47.6C36.9993 47.6 36.9993 47.6 36.9993 47.6C36.9993 47.6 36.9993 47.6 36.9993 47.6C36.9993 47.6 36.9993 47.6 36.9993 47.6C36.9993 47.6 36.9993 47.6 36.9993 47.6C36.9993 47.6 36.9993 47.6 36.9993 47.6C36.9993 47.6 36.9993 47.6 36.9993 47.6C36.9993 47.6 36.9993 47.6 36.9993 47.6C36.9993 47.6 36.9993 47.6 36.9993 47.6C36.9993 47.6 36.9993 47.6 36.9993 47.6C36.9993 47.6 36.9993 47.6 36.9993 47.6C36.9993 47.6 36.9993 47.6 36.9993 47.6C36.9993 47.6 36.9993 47.6 36.9993 47.6C36.9993 47.6 36.9993 47.6 36.9993 47.6C36.9993 47.6 36.9993 47.6 36.9993 47.6C36.9993 47.6 36.9993 47.6 36.9993 47.6C36.9993 47.6 36.9993 47.6 36.9993 47.6C36.9993 47.6 36.9993 47.6 36.9993 47.6C36.9993 47.6 36.9993 47.6 36.9993 47.6C36.9993 47.6 36.9993 47.6 36.9993 47.6C36.9993 47.6 36.9993 47.6 36.9993 47.6C36.9993 47.6 36.9993 47.6 36.9993 47.6C36.9993 47.6 36.9993 47.6 36.9993 47.6C36.9993 47.6 36.9993 47.6 36.9993 47.6C36.9993 47.6 36.9993 47.6 36.9993 47.6C36.9993 47.6 36.9993 47.6 36.9993 47.6C36.9993 47.6 36.9993 47.6 36.9993 47.6C36.9993 47.6 36.9993 47.6 36.9993 47.6C36.9993 47.6 36.9993 47.6 36.9993 47.6C36.9993 47.6 36.9993 47.6 36.9993 47.6C36.9993 47.6 36.9993 47.6 36.9993 47.6C36.9993 47.6 36.9993 47.6 36.9993 47.6C36.9993 47.6 36.9993 47.6 36.9993 47.6C36.9993 47.6 36.9993 47.6 36.9993 47.6C36.9993 47.6 36.9993 47.6 36.9993 47.6C36.9993 47.6 36.9993 47.6 36.9993 47.6C36.9993 47.6 36.9993 47.6 36.9993 47.6C36.9993 47.6 36.9993 47.6 36.9993 47.6C36.9993 47.6 36.9993 47.6 36.9993 47.6C36.9993 47.6 36.9993 47.6 36.9993 47.6C36.9993 47.6 36.9993 47.6 36.9993 47.6C36.9993 47.6 36.9993 47.6 36.9993 47.6C36.9993 47.6 36.9993 47.6 36.9993 47.6C36.9993 47.6 36.9993 47.6 36.9993 47.6C36.9993 47.6 36.9993 47.6 36.9993 47.6C36.9993 47.6 36.9993 47.6 36.9993 47.6C36.9993 47.6 36.9993 47.6 36.9993 47.6C36.9993 47.6 36.9993 47.6 36.9993 47.6C36.9993 47.6 36.9993 47.6 36.9993 47.6C36.9993 47.6 36.9993 47.6 36.9993 47.6C36.9993 47.6 36.9993 47.6 36.9993 47.6C36.9993 47.6 36.9993 47.6 36.9993 47.6C36.9993 47.6 36.9993 47.6 36.9993 47.6C36.9993 47.6 36.9993 47.6 36.9993 47.6C36.9993 47.6 36.9993 47.6 36.9993 47.6C36.9993 47.6 36.9993 47.6 36.9993 47.6C36.9993 47.6 36.9993 47.6 36.9993 47.6C36.9993 47.6 36.9993 47.6 36.9993 47.6C36.9993 47.6 36.9993 47.6 36.9993 47.6C36.9993 47.6 36.9993 47.6 36.9993 47.6C36.9993 47.6 36.9993 47.6 36.9993 47.6C36.9993 47.6 36.9993 47.6 36.9993 47.6C36.9993 47.6 36.9993 47.6 36.9993 47.6C36.9993 47.6 36.9993 47.6 36.9993 47.6C36.9993 47.6 36.9993 47.6 36.9993 47.6C36.9993 47.6 36.9993 47.6 36.9993 47.6C36.9993 47.6 36.9993 47.6 36.9993 47.6C36.9993 47.6 36.9993 47.6 36.9993 47.6C36.9993 47.6 36.9993 47.6 36.9993 47.6C36.9993 47.6 36.9993 47.6 36.9993 47.6C36.9993 47.6 36.9993 47.6 36.9993 47.6C36.9993 47.6 36.9993 47.6 36.9993 47.6C36.9993 47.6 36.9993 47.6 36.9993 47.6C36.9993 47.6 36.9993 47.6 36.9993 47.6C36.9993 47.6 36.9993 47.6 36.9993 47.6C36.9993 47.6 36.9993 47.6 36.9993 47.6C36.9993 47.6 36.9993 47.6 36.9993 47.6C36.9993 47.6 36.9993 47.6 36.9993 47.6C36.9993 47.6 36.9993 47.6 36.9993 47.6C36.9993 47.6 36.9993 47.6 36.9993 47.6C36.9993 47.6 36.9993 47.6 36.9993 47.6C36.9993 47.6 36.9993 47.6 36.9993 47.6C36.9993 47.6 36.9993 47.6 36.9993 47.6C36.9993 47.6 36.9993 47.6 36.9993 47.6C36.9993 47.6 36.9993 47.6 36.9993 47.6C36.9993 47.6 36.9993 47.6 36.9993 47.6C36.9993 47.6 36.9993 47.6 36.9993 47.6C36.9993 47.6 36.9993 47.6 36.9993 47.6C36.9993 47.6 36.9993 47.6 36.9993 47.6C36.9993 47.6 36.9993 47.6 36.9993 47.6C36.9993 47.6 36.9993 47.6 36.9993 47.6C36.9993 47.6 36.9993 47.6 36.9993 47.6C36.9993 47.6 36.9993 47.6 36.9993 47.6C36.9993 47.6 36.9993 47.6 36.9993 47.6C36.9993 47.6 36.9993 47.6 36.9993 47.6C36.9993 47.6 36.9993 47.6 36.9993 47.6C36.9993 47.6 36.9993 47.6 36.9993 47.6C36.9993 47.6 36.9993 47.6 36.9993 47.6C36.9993 47.6 36.9993 47.6 36.9993 47.6C36.9993 47.6 36.9993 47.6 36.9993 47.6C36.9993 47.6 36.9993 47.6 36.9993 47.6C36.9993 47.6 36.9993 47.6 36.9993 47.6C36.9993 47.6 36.9993 47.6 36.9993 47.6C36.9993 47.6 36.9993 47.6 36.9993 47.6C36.9993 47.6 36.9993 47.6 36.9993 47.6C36.9993 47.6 36.9993 47.6 36.9993 47.6C36.9993 47.6 36.9993 47.6 36.9993 47.6C36.9993 47.6 36.9993 47.6 36.9993 47.6C36.9993 47.6 36.9993 47.6 36.9993 47.6C36.9993 47.6 36.9993 47.6 36.9993 47.6C36.9993 47.6 36.9993 47.6 36.9993 47.6C36.9993 47.6 36.9993 47.6 36.9993 47.6C36.9993 47.6 36.9993 47.6 36.9993 47.6C36.9993 47.6 36.9993 47.6 36.9993 47.6C36.9993 47.6 36.9993 47.6 36.9993 47.6C36.9993 47.6 36.9993 47.6 36.9993 47.6C36.9993 47.6 36.9993 47.6 36.9993 47.6C36.9993 47.6 36.9993 47.6 36.9993 47.6C36.9993 47.6 36.9993 47.6 36.9993 47.6C36.9993 47.6 36.9993 47.6 36.9993 47.6C36.9993 47.6 36.9993 47.6 36.9993 47.6C36.9993 47.6 36.9993 47.6 36.9993 47.6C36.9993 47.6 36.9993 47.6 36.9993 47.6C36.9993 47.6 36.9993 47.6 36.9993 47.6C36.9993 47.6 36.9993 47.6 36.9993 47.6C36.9993 47.6 36.9993 47.6 36.9993 47.6C36.9993 47.6 36.9993 47.6 36.9993 47.6C36.9993 47.6 36.9993 47.6 36.9993 47.6C36.9993 47.6 36.9993 47.6 36.9993 47.6C36.9993 47.6 36.9993 47.6 36.9993 47.6C36.9993 47.6 36.9993 47.6 36.9993 47.6C36.9993 47.6 36.9993 47.6 36.9993 47.6C36.9993 47.6 36.9993 47.6 36.9993 47.6C36.9993 47.6 36.9993 47.6 36.9993 47.6C36.9993 47.6 36.9993 47.6 36.9993 47.6C36.9993 47.6 36.9993 47.6 36.9993 47.6C36.9993 47.6 36.9993 47.6 36.9993 47.6C36.9993 47.6 36.9993 47.6 36.9993 47.6C36.9993 47.6 36.9993 47.6 36.9993 47.6C36.9993 47.6 36.9993 47.6 36.9993 47.6C36.9993 47.6 36.9993 47.6 36.9993 47.6C36.9993 47.6 36.9993 47.6 36.9993 47.6C36.9993 47.6 36.9993 47.6 36.9993 47.6C36.9993 47.6 36.9993 47.6 36.9993 47.6C36.9993 47.6 36.9993 47.6 36.9993 47.6C36.9993 47.6 36.9993 47.6 36.9993 47.6C36.9993 47.6 36.9993 47.6 36.9993 47.6C36.9993 47.6 36.9993 47.6 36.9993 47.6C36.9993 47.6 36.9993 47.6 36.9993 47.6C36.9993 47.6 36.9993 47.6 36.9993 47.6C36.9993 47.6 36.9993 47.6 36.9993 47.6C36.9993 47.6 36.9993 47.6 36.9993 47.6C36.9993 47.6 36.9993 47.6 36.9993 47.6C36.9993 47.6 36.9994 47.6 36.9994 47.6C36.9994 47.6 36.9994 47.6 36.9994 47.6C36.9994 47.6 36.9994 47.6 36.9994 47.6C36.9994 47.6 36.9994 47.6 36.9994 47.6C36.9994 47.6 36.9994 47.6 36.9994 47.6C36.9994 47.6 36.9994 47.6 36.9994 47.6C36.9994 47.6 36.9994 47.6 36.9994 47.6C36.9994 47.6 36.9994 47.6 36.9994 47.6C36.9994 47.6 36.9994 47.6 36.9994 47.6C36.9994 47.6 36.9994 47.6 36.9994 47.6C36.9994 47.6 36.9994 47.6 36.9994 47.6C36.9994 47.6 36.9994 47.6 36.9994 47.6C36.9994 47.6 36.9994 47.6 36.9994 47.6C36.9994 47.6 36.9994 47.6 36.9994 47.6C36.9994 47.6 36.9994 47.6 36.9994 47.6C36.9994 47.6 36.9994 47.6 36.9994 47.6C36.9994 47.6 36.9994 47.6 36.9994 47.6C36.9994 47.6 36.9994 47.6 36.9994 47.6C36.9994 47.6 36.9994 47.6 36.9994 47.6C36.9994 47.6 36.9994 47.6 36.9994 47.6C36.9994 47.6 36.9994 47.6 36.9994 47.6C36.9994 47.6 36.9994 47.6 36.9994 47.6C36.9994 47.6 36.9994 47.6 36.9994 47.6C36.9994 47.6 36.9994 47.6 36.9994 47.6C36.9994 47.6 36.9994 47.6 36.9994 47.6C36.9994 47.6 36.9994 47.6 36.9994 47.6C36.9994 47.6 36.9994 47.6 36.9994 47.6C36.9994 47.6 36.9994 47.6 36.9994 47.6C36.9994 47.6 36.9994 47.6 36.9994 47.6C36.9994 47.6 36.9994 47.6 36.9994 47.6C36.9994 47.6 36.9994 47.6 36.9994 47.6C36.9994 47.6 36.9994 47.6 36.9994 47.6C36.9994 47.6 36.9994 47.6 36.9994 47.6C36.9994 47.6 36.9994 47.6 36.9994 47.6C36.9994 47.6 36.9994 47.6 36.9994 47.6C36.9994 47.6 36.9994 47.6 36.9994 47.6C36.9994 47.6 36.9994 47.6 36.9994 47.6C36.9994 47.6 36.9994 47.6 36.9994 47.6C36.9994 47.6 36.9994 47.6 36.9994 47.6C36.9994 47.6 36.9994 47.6 36.9994 47.6C36.9994 47.6 36.9994 47.6 36.9994 47.6C36.9994 47.6 36.9994 47.6 36.9994 47.6C36.9994 47.6 36.9994 47.6 36.9994 47.6C36.9994 47.6 36.9994 47.6 36.9994 47.6C36.9994 47.6 36.9994 47.6 36.9994 47.6C36.9994 47.6 36.9994 47.6 36.9994 47.6C36.9994 47.6 36.9994 47.6 36.9994 47.6C36.9994 47.6 36.9994 47.6 36.9994 47.6C36.9994 47.6 36.9994 47.6 36.9994 47.6C36.9994 47.6 36.9994 47.6 36.9994 47.6C36.9994 47.6 36.9994 47.6 36.9994 47.6C36.9994 47.6 36.9994 47.6 36.9994 47.6C36.9994 47.6 36.9994 47.6 36.9994 47.6C36.9994 47.6 36.9994 47.6 36.9994 47.6C36.9994 47.6 36.9994 47.6 36.9994 47.6C36.9994 47.6 36.9994 47.6 36.9994 47.6C36.9994 47.6 36.9994 47.6 36.9994 47.6C36.9994 47.6 36.9994 47.6 36.9994 47.6C36.9994 47.6 36.9994 47.6 36.9994 47.6C36.9994 47.6 36.9994 47.6 36.9994 47.6C36.9994 47.6 36.9994 47.6 36.9994 47.6C36.9994 47.6 36.9994 47.6 36.9994 47.6C36.9994 47.6 36.9994 47.6 36.9994 47.6C36.9994 47.6 36.9994 47.6 36.9994 47.6C36.9994 47.6 36.9994 47.6 36.9994 47.6C36.9994 47.6 36.9994 47.6 36.9994 47.6C36.9994 47.6 36.9994 47.6 36.9994 47.6C36.9994 47.6 36.9994 47.6 36.9994 47.6C36.9994 47.6 36.9994 47.6 36.9994 47.6C36.9994 47.6 36.9994 47.6 36.9994 47.6C36.9994 47.6 36.9994 47.6 36.9994 47.6C36.9994 47.6 36.9994 47.6 36.9994 47.6C36.9994 47.6 36.9994 47.6 36.9994 47.6C36.9994 47.6 36.9994 47.6 36.9994 47.6C36.9994 47.6 36.9994 47.6 36.9994 47.6C36.9994 47.6 36.9994 47.6 36.9994 47.6C36.9994 47.6 36.9994 47.6 36.9994 47.6C36.9994 47.6 36.9994 47.6 36.9994 47.6C36.9994 47.6 36.9994 47.6 36.9994 47.6C36.9994 47.6 36.9994 47.6 36.9994 47.6C36.9994 47.6 36.9994 47.6 36.9994 47.6C36.9994 47.6 36.9994 47.6 36.9994 47.6C36.9994 47.6 36.9994 47.6 36.9994 47.6C36.9994 47.6 36.9994 47.6 36.9994 47.6C36.9994 47.6 36.9994 47.6 36.9994 47.6C36.9994 47.6 36.9994 47.6 36.9994 47.6C36.9994 47.6 36.9994 47.6 36.9994 47.6C36.9994 47.6 36.9994 47.6 36.9994 47.6C36.9994 47.6 36.9994 47.6 36.9994 47.6C36.9994 47.6 36.9994 47.6 36.9994 47.6C36.9994 47.6 36.9994 47.6 36.9994 47.6C36.9994 47.6 36.9994 47.6 36.9994 47.6C36.9994 47.6 36.9994 47.6 36.9994 47.6C36.9994 47.6 36.9994 47.6 36.9994 47.6C36.9994 47.6 36.9994 47.6 36.9994 47.6C36.9994 47.6 36.9994 47.6 36.9994 47.6C36.9994 47.6 36.9994 47.6 36.9994 47.6C36.9994 47.6 36.9994 47.6 36.9994 47.6C36.9994 47.6 36.9994 47.6 36.9994 47.6C36.9994 47.6 36.9994 47.6 36.9994 47.6C36.9994 47.6 36.9994 47.6 36.9994 47.6C36.9994 47.6 36.9994 47.6 36.9994 47.6C36.9994 47.6 36.9994 47.6 36.9994 47.6C36.9994 47.6 36.9994 47.6 36.9994 47.6C36.9994 47.6 36.9994 47.6 36.9994 47.6C36.9994 47.6 36.9994 47.6 36.9994 47.6C36.9994 47.6 36.9994 47.6 36.9994 47.6C36.9994 47.6 36.9994 47.6 36.9994 47.6C36.9994 47.6 36.9994 47.6 36.9994 47.6C36.9994 47.6 36.9994 47.6 36.9994 47.6C36.9994 47.6 36.9994 47.6 36.9994 47.6C36.9994 47.6 36.9994 47.6 36.9994 47.6C36.9994 47.6 36.9994 47.6 36.9994 47.6C36.9994 47.6 36.9994 47.6 36.9994 47.6C36.9994 47.6 36.9994 47.6 36.9994 47.6C36.9994 47.6 36.9994 47.6 36.9994 47.6C36.9994 47.6 36.9994 47.6 36.9994 47.6C36.9994 47.6 36.9994 47.6 36.9994 47.6C36.9994 47.6 36.9994 47.6 36.9994 47.6C36.9994 47.6 36.9994 47.6 36.9994 47.6C36.9994 47.6 36.9994 47.6 36.9994 47.6C36.9994 47.6 36.9994 47.6 36.9994 47.6C36.9994 47.6 36.9994 47.6 36.9994 47.6C36.9994 47.6 36.9994 47.6 36.9994 47.6C36.9994 47.6 36.9994 47.6 36.9994 47.6C36.9994 47.6 36.9994 47.6 36.9994 47.6C36.9994 47.6 36.9994 47.6 36.9994 47.6C36.9994 47.6 36.9994 47.6 36.9994 47.6C36.9994 47.6 36.9994 47.6 36.9994 47.6V45.6ZM40.7992 41.8C40.7992 43.8986 39.098 45.5999 36.9994 45.6L36.9995 47.6C40.2026 47.5998 42.7992 45.0032 42.7992 41.8H40.7992ZM40.6394 40.7053C40.7431 41.0507 40.7992 41.4179 40.7992 41.8H42.7992C42.7992 41.221 42.714 40.6602 42.5549 40.1302L40.6394 40.7053ZM31.2343 6.06199L40.6321 40.6797L42.5622 40.1557L33.1645 5.53801L31.2343 6.06199ZM35.4312 0.359816L31.4312 5.15982L32.9676 6.44018L36.9676 1.64018L35.4312 0.359816Z" fill="black"/>
<path fill-rule="evenodd" clip-rule="evenodd" d="M2.38844 40.2C2.01407 40.8276 1.7998 41.5562 1.7998 42.3333C1.7998 44.6898 3.76975 46.6 6.1998 46.6C8.62986 46.6 10.5998 44.6898 10.5998 42.3333C10.5998 41.5562 10.3855 40.8276 10.0112 40.2H2.38844Z" fill="white"/>
<path d="M2.38844 40.2V39.2H1.82057L1.52965 39.6877L2.38844 40.2ZM10.0112 40.2L10.87 39.6877L10.579 39.2H10.0112V40.2ZM2.7998 42.3333C2.7998 41.7429 2.96201 41.1905 3.24724 40.7123L1.52965 39.6877C1.06613 40.4647 0.799805 41.3695 0.799805 42.3333H2.7998ZM6.1998 45.6C4.29281 45.6 2.7998 44.1087 2.7998 42.3333H0.799805C0.799805 45.2708 3.2467 47.6 6.1998 47.6V45.6ZM9.59981 42.3333C9.59981 44.1087 8.1068 45.6 6.1998 45.6V47.6C9.15291 47.6 11.5998 45.2708 11.5998 42.3333H9.59981ZM9.15237 40.7123C9.4376 41.1905 9.59981 41.7429 9.59981 42.3333H11.5998C11.5998 41.3695 11.3335 40.4647 10.87 39.6877L9.15237 40.7123ZM10.0112 39.2H2.38844V41.2H10.0112V39.2Z" fill="black"/>
<path d="M6.6001 1H37.1218C38.5619 1 39.9682 1.59 40.9956 2.6402C42.0229 3.69041 42.6001 5.1091 42.6001 6.6H37.1218L11.4001 6.6C11.4001 5 10.6187 1.35625 6.6001 1Z" fill="white"/>
<path d="M42.6001 6.6V7.6C43.1524 7.6 43.6001 7.15228 43.6001 6.6H42.6001ZM37.1218 1L37.1218 0H37.1218V1ZM37.1218 6.6L37.1218 5.6H37.1218L37.1218 6.6ZM6.6001 1V0C6.065 0 5.62472 0.42123 5.60107 0.955805C5.57743 1.49038 5.97879 1.94884 6.51179 1.99609L6.6001 1ZM11.4001 6.6H10.4001C10.4001 6.86522 10.5055 7.11957 10.693 7.30711C10.8805 7.49464 11.1349 7.6 11.4001 7.6L11.4001 6.6ZM43.6001 6.6C43.6001 4.85658 42.9228 3.18025 41.7104 1.94091L40.2807 3.3395C41.1231 4.20056 41.6001 5.373 41.6001 6.6H43.6001ZM41.7104 1.94091C40.4973 0.700818 38.8472 1.33153e-07 37.1218 0L37.1218 2C38.3024 2 39.4391 2.47918 40.2807 3.3395L41.7104 1.94091ZM37.1218 7.6H42.6001V5.6H37.1218V7.6ZM6.6001 2H37.1218V0H6.6001V2ZM37.1218 5.6L11.4001 5.6L11.4001 7.6L37.1218 7.6L37.1218 5.6ZM12.4001 6.6C12.4001 5.67424 12.1804 4.17025 11.3631 2.81671C10.5166 1.41472 9.04503 0.212822 6.6884 0.00390643L6.51179 1.99609C8.17377 2.14343 9.10219 2.94153 9.65102 3.85048C10.2291 4.80787 10.4001 5.92576 10.4001 6.6H12.4001ZM37.1218 2C38.2908 2 39.44 2.48008 40.2807 3.3395L41.7104 1.94091C40.4964 0.699912 38.8331 1.32067e-07 37.1218 0L37.1218 2ZM40.2807 3.3395C41.1234 4.20094 41.6001 5.36784 41.6001 6.6H43.6001C43.6001 4.85036 42.9224 3.17988 41.7104 1.94091L40.2807 3.3395Z" fill="black"/>
<path d="M11.4 6.2C11.4 5.44987 11.2377 4.70863 10.9243 4.02713C10.6108 3.34563 10.1536 2.74001 9.58409 2.25184C9.01454 1.76367 8.34613 1.4045 7.6247 1.19898C6.90328 0.993457 6.14593 0.946452 5.40463 1.06119C4.66333 1.17592 3.95563 1.44969 3.33009 1.86368C2.70456 2.27768 2.176 2.82212 1.78068 3.45963C1.38537 4.09714 1.13266 4.81263 1.03991 5.557C0.947152 6.30137 1.01654 7.05699 1.24331 7.77202" stroke="black" stroke-width="2"/>
<path d="M43.4809 12.8609C43.1573 16.6825 43.3851 18.2204 44.6135 19.7478L46.312 18.0323C46.8914 11.6903 47.9934 8.64335 52.164 5.2087C51.6591 7.59398 51.9924 10.0762 53.2966 11.3304L54.24 10.0839C54.7161 4.45913 58.3498 3.29558 64.9999 1C62.7786 7.85069 60.2413 11.015 55.9389 11.2194L55.1842 12.4783C56.3302 13.3121 58.5098 12.9498 60.8471 12.4783C58.8586 16.3363 55.6584 18.8693 48.0109 20.3032L46.8787 21.6609C48.7133 22.5633 50.2531 22.5188 53.6741 21.6609C49.159 25.5986 46.1487 26.5146 41.2158 25.487C40.5154 20.6298 40.7107 17.2709 43.4809 12.8609Z" fill="white"/>
<path d="M41.2158 25.487C46.1487 26.5146 49.159 25.5986 53.6741 21.6609C50.2531 22.5188 48.7133 22.5633 46.8787 21.6609L48.0109 20.3032C55.6584 18.8693 58.8586 16.3363 60.8471 12.4783C58.5098 12.9498 56.3302 13.3121 55.1842 12.4783L55.9389 11.2194C60.2413 11.015 62.7786 7.85069 64.9999 1C58.3498 3.29558 54.7161 4.45913 54.24 10.0839L53.2966 11.3304C51.9924 10.0762 51.6591 7.59398 52.164 5.2087C47.9934 8.64335 46.8914 11.6903 46.312 18.0323L44.6135 19.7478C43.3851 18.2204 43.1573 16.6825 43.4809 12.8609C40.7107 17.2709 40.5154 20.6298 41.2158 25.487ZM41.2158 25.487L31.4001 36.2" stroke="black" stroke-width="2" stroke-linecap="round" stroke-linejoin="round"/>
</svg>
