<svg width="52" height="52" viewBox="0 0 52 52" fill="none" xmlns="http://www.w3.org/2000/svg">
<path d="M11.2254 35.8889L14.8886 39.7798C12.5091 48.1959 8.2316 49.1028 0.999936 49.5851C1.52191 40.943 4.13096 37.7169 11.2254 35.8889Z" fill="white" stroke="black" stroke-width="2" stroke-linejoin="round"/>
<path d="M9.6868 14.861L16.7181 17.5567L12.1835 26.6671L1.33883 20.6593L9.6868 14.861Z" fill="white" stroke="black" stroke-width="2" stroke-linejoin="round"/>
<path d="M35.2045 42.6327L32.9006 35.4634L23.554 39.4888L28.9547 50.6482L35.2045 42.6327Z" fill="white" stroke="black" stroke-width="2" stroke-linejoin="round"/>
<path d="M10.471 29.781C16.8276 8.06972 25.9784 1.26293 50.997 1.16717C50.467 24.5601 44.1786 34.5941 20.827 40.9246L10.471 29.781Z" fill="white" stroke="black" stroke-width="2" stroke-linejoin="round"/>
<ellipse cx="31.665" cy="17.7376" rx="7" ry="7" transform="rotate(1.68615 31.665 17.7376)" fill="white" stroke="black" stroke-width="2"/>
<path d="M14.29 20.7373L30.4622 37.2312" stroke="black" stroke-width="2"/>
</svg>
