<svg width="600" height="600" viewBox="0 0 600 600" fill="none" xmlns="http://www.w3.org/2000/svg">
<path fill-rule="evenodd" clip-rule="evenodd" d="M162.812 187.113C183.621 130.047 252.699 101.554 323.04 110.547C357.376 114.937 388.526 128.176 410.111 148.481C431.119 168.243 444.065 195.5 442 231.635C441.213 245.42 451.749 257.233 465.533 258.02C479.318 258.808 491.131 248.272 491.919 234.487C494.854 183.122 475.801 141.629 444.371 112.063C413.519 83.04 371.794 66.373 329.381 60.9504C246.554 50.3609 146.954 82.3046 115.401 171.199C115.206 171.747 115.031 172.303 114.875 172.864C99.5887 227.837 114.378 270.523 133.418 299.014C139.991 308.851 147.017 316.942 153.369 323.308C136.81 342.657 125.319 357.711 118.147 372.352C107.822 393.43 107 412.307 107 435.868C107 449.675 118.193 460.868 132 460.868C145.807 460.868 157 449.676 157 435.868C157 413.123 158.151 404.346 163.049 394.347C167.788 384.672 176.386 373.205 193.99 352.778C206.45 359.591 219.756 365.443 236.232 371.173C237.2 371.51 238.189 371.787 239.191 372.003C284.811 381.809 307.619 381.383 336.882 380.836C343.819 380.706 351.118 380.57 359.171 380.561C385.612 382.302 402.781 388.773 414.018 396.136C425.239 403.489 431.893 412.607 435.998 421.809C443.434 438.478 442.58 454.139 442.12 462.583C442.033 464.182 441.96 465.522 441.96 466.561C441.96 480.368 453.152 491.561 466.96 491.561C480.767 491.561 491.96 480.368 491.96 466.561C491.96 467.088 496.07 433.738 481.66 401.438C474.139 384.577 461.605 367.54 441.422 354.314C421.361 341.169 395.129 332.693 361.508 330.609C360.993 330.577 360.477 330.561 359.961 330.561C350.453 330.561 342.297 330.707 334.883 330.841C307.188 331.338 289.865 331.649 251.216 323.443C230.92 316.282 217.269 309.254 202.669 299.665C202.554 299.589 202.439 299.515 202.323 299.441C202.29 299.42 202.204 299.363 202.069 299.272C201.768 299.07 201.226 298.696 200.483 298.154C198.995 297.066 196.727 295.316 193.999 292.914C188.504 288.076 181.391 280.812 174.989 271.233C162.629 252.737 152.485 225.197 162.812 187.113Z" fill="white"/>
<path fill-rule="evenodd" clip-rule="evenodd" d="M148.281 325.656C149.014 317.94 146.399 307.951 133.849 294.155L156.041 273.968C172.074 291.592 179.943 309.577 178.147 328.492C176.422 346.657 166.022 362.299 153.59 376.1L131.3 356.022C142.336 343.77 147.477 334.123 148.281 325.656Z" fill="white"/>
<path fill-rule="evenodd" clip-rule="evenodd" d="M357.712 540.054C336.729 539.648 320.048 522.31 320.453 501.327L322.453 397.827C322.859 376.844 340.197 360.163 361.18 360.568C382.163 360.974 398.845 378.312 398.439 399.295L396.439 502.795C396.034 523.778 378.695 540.459 357.712 540.054Z" fill="white"/>
<path fill-rule="evenodd" clip-rule="evenodd" d="M239.104 530.56C218.394 530.371 201.759 513.43 201.947 492.72L202.947 382.72C203.135 362.01 220.076 345.374 240.786 345.563C261.496 345.751 278.132 362.692 277.943 383.402L276.943 493.402C276.755 514.112 259.814 530.748 239.104 530.56Z" fill="white"/>
<path fill-rule="evenodd" clip-rule="evenodd" d="M181.859 334.149L149.028 395.973L159.615 401.594C162.108 391.597 171.267 384.304 181.997 384.568C194.42 384.873 204.243 395.19 203.939 407.613L203.514 424.907L227.581 437.687L277.357 442.754C279.409 432.167 288.856 424.294 299.997 424.568C312.313 424.87 322.074 435.013 321.944 447.293L397.045 454.938C398.139 443.269 408.103 434.276 419.997 434.568C432.42 434.873 442.243 445.19 441.938 457.613L441.749 465.34L453.309 468.103L469.577 400.019L410.811 385.977L248.306 369.435L181.859 334.149Z" fill="white"/>
</svg>
